<?xml version="1.0" encoding="UTF-8"?>
<svg width="17px" height="18px" viewBox="0 0 17 18" version="1.1" xmlns="http://www.w3.org/2000/svg" xmlns:xlink="http://www.w3.org/1999/xlink">
    <title>55283DC0-655F-44A0-9967-96C1DA85EB84</title>
    <g id="Page-1" stroke="none" stroke-width="1" fill="none" fill-rule="evenodd">
        <g id="table-1" transform="translate(-1028.000000, -303.000000)" fill="#777777" fill-rule="nonzero">
            <g id="form" transform="translate(25.000000, 168.000000)">
                <g id="table" transform="translate(0.000000, 78.000000)">
                    <g id="Group-9" transform="translate(15.000000, 52.000000)">
                        <g id="Group-13" transform="translate(945.000000, 5.000000)">
                            <path d="M43.9444444,0 L59.0555556,0 C59.5771578,0 60,0.402943725 60,0.9 L60,17.1 C60,17.5970563 59.5771578,18 59.0555556,18 L43.9444444,18 C43.4228422,18 43,17.5970563 43,17.1 L43,0.9 C43,0.402943725 43.4228422,0 43.9444444,0 Z M44.8888889,1.8 L44.8888889,16.2 L58.1111111,16.2 L58.1111111,1.8 L44.8888889,1.8 Z M46.7777778,3.6 L56.2222222,3.6 L56.2222222,7.2 L46.7777778,7.2 L46.7777778,3.6 Z M46.7777778,9 L48.6666667,9 L48.6666667,10.8 L46.7777778,10.8 L46.7777778,9 Z M46.7777778,12.6 L48.6666667,12.6 L48.6666667,14.4 L46.7777778,14.4 L46.7777778,12.6 Z M50.5555556,9 L52.4444444,9 L52.4444444,10.8 L50.5555556,10.8 L50.5555556,9 Z M50.5555556,12.6 L52.4444444,12.6 L52.4444444,14.4 L50.5555556,14.4 L50.5555556,12.6 Z M54.3333333,9 L56.2222222,9 L56.2222222,14.4 L54.3333333,14.4 L54.3333333,9 Z" id="Shape"></path>
                        </g>
                    </g>
                </g>
            </g>
        </g>
    </g>
</svg>