<?xml version="1.0" encoding="UTF-8"?>
<svg width="18px" height="18px" viewBox="0 0 18 18" version="1.1" xmlns="http://www.w3.org/2000/svg" xmlns:xlink="http://www.w3.org/1999/xlink">
    <title>673915B2-B3E9-4F77-8BF4-1DC1CB9E35F0</title>
    <g id="Page-1" stroke="none" stroke-width="1" fill="none" fill-rule="evenodd">
        <g id="table-1" transform="translate(-1087.000000, -303.000000)" fill="#AAAAAA" fill-rule="nonzero">
            <g id="form" transform="translate(25.000000, 168.000000)">
                <g id="table" transform="translate(0.000000, 78.000000)">
                    <g id="Group-9" transform="translate(15.000000, 52.000000)">
                        <g id="Group-13" transform="translate(945.000000, 5.000000)">
                            <path d="M102,1.995 C102,0.893 102.893,0 103.995,0 L118.005,0 C119.107,0 120,0.893 120,1.995 L120,16.005 C120,17.1068081 119.106808,18 118.005,18 L103.995,18 C102.893192,18 102,17.1068081 102,16.005 L102,1.995 Z M104,2 L104,16 L118,16 L118,2 L104,2 Z M106.972,15.18 C106.356983,14.9136054 105.770357,14.5859523 105.221,14.202 C106.509812,12.2046121 108.724902,10.9985726 111.102,10.9999987 C113.502,10.9999987 115.619,12.207 116.88,14.047 C116.341155,14.4456073 115.763581,14.7890025 115.156,15.072 C114.216511,13.7695731 112.707912,12.9985276 111.102,12.9999987 C109.387,12.9999987 107.872,13.864 106.972,15.18 L106.972,15.18 Z M111,10 C109.74957,10 108.594126,9.33290379 107.968911,8.25000002 C107.343696,7.16709624 107.343696,5.83290376 107.968911,4.74999998 C108.594126,3.66709621 109.74957,3 111,3 C112.932997,3 114.5,4.56700338 114.5,6.5 C114.5,8.43299662 112.932997,10 111,10 L111,10 Z M111,8 C111.828427,8 112.5,7.32842712 112.5,6.5 C112.5,5.67157288 111.828427,5 111,5 C110.171573,5 109.5,5.67157288 109.5,6.5 C109.5,7.32842712 110.171573,8 111,8 Z" id="Shape"></path>
                        </g>
                    </g>
                </g>
            </g>
        </g>
    </g>
</svg>