<?xml version="1.0" encoding="UTF-8"?>
<svg width="17px" height="18px" viewBox="0 0 17 18" version="1.1" xmlns="http://www.w3.org/2000/svg" xmlns:xlink="http://www.w3.org/1999/xlink">
    <title>C0B5F5BE-B36F-4E4A-B6E1-CCB1F0363374</title>
    <g id="Page-1" stroke="none" stroke-width="1" fill="none" fill-rule="evenodd">
        <g id="table-1" transform="translate(-1117.000000, -303.000000)" fill="#AAAAAA" fill-rule="nonzero">
            <g id="form" transform="translate(25.000000, 168.000000)">
                <g id="table" transform="translate(0.000000, 78.000000)">
                    <g id="Group-9" transform="translate(15.000000, 52.000000)">
                        <g id="Group-13" transform="translate(945.000000, 5.000000)">
                            <path d="M148.055556,18 L132.944444,18 C132.422842,18 132,17.5970563 132,17.1 L132,0.9 C132,0.402943725 132.422842,0 132.944444,0 L148.055556,0 C148.577158,0 149,0.402943725 149,0.9 L149,17.1 C149,17.5970563 148.577158,18 148.055556,18 Z M147.111111,16.2 L147.111111,1.8 L133.888889,1.8 L133.888889,16.2 L147.111111,16.2 Z M136.722222,4.5 L144.277778,4.5 L144.277778,6.3 L136.722222,6.3 L136.722222,4.5 Z M136.722222,8.1 L144.277778,8.1 L144.277778,9.9 L136.722222,9.9 L136.722222,8.1 Z M136.722222,11.7 L144.277778,11.7 L144.277778,13.5 L136.722222,13.5 L136.722222,11.7 Z" id="Shape"></path>
                        </g>
                    </g>
                </g>
            </g>
        </g>
    </g>
</svg>