<?xml version="1.0" encoding="UTF-8"?>
<svg width="18px" height="18px" viewBox="0 0 18 18" version="1.1" xmlns="http://www.w3.org/2000/svg" xmlns:xlink="http://www.w3.org/1999/xlink">
    <title>6944CB3D-4449-4EA5-9ECF-8E8B16DEEE8E</title>
    <g id="Page-1" stroke="none" stroke-width="1" fill="none" fill-rule="evenodd">
        <g id="table-1" transform="translate(-1057.000000, -303.000000)" fill="#AAAAAA" fill-rule="nonzero">
            <g id="form" transform="translate(25.000000, 168.000000)">
                <g id="table" transform="translate(0.000000, 78.000000)">
                    <g id="Group-9" transform="translate(15.000000, 52.000000)">
                        <g id="Group-13" transform="translate(945.000000, 5.000000)">
                            <path d="M89.1,0 C89.5970563,0 90,0.44771525 90,1 L90,17 C90,17.5522847 89.5970563,18 89.1,18 L72.9,18 C72.4029437,18 72,17.5522847 72,17 L72,1 C72,0.44771525 72.4029437,0 72.9,0 L89.1,0 Z M88.2,4.5 L73.8,4.5 L73.8,16.2 L88.2,16.2 L88.2,4.5 Z M83.7324,7.3224 L85.005,8.595 L80.55,13.05 L77.3676,9.8676 L78.642,8.595 L80.5509,10.5048 L83.7333,7.3224 L83.7324,7.3224 Z" id="Shape"></path>
                        </g>
                    </g>
                </g>
            </g>
        </g>
    </g>
</svg>