<?xml version="1.0" encoding="UTF-8"?>
<svg width="124px" height="42px" viewBox="0 0 124 42" version="1.1" xmlns="http://www.w3.org/2000/svg" xmlns:xlink="http://www.w3.org/1999/xlink">
    <!-- Generator: sketchtool 63.1 (101010) - https://sketch.com -->
    <title>9A413674-8FC0-4E36-BE80-567EA1BF3385</title>
    <desc>Created with sketchtool.</desc>
    <g id="Page-1" stroke="none" stroke-width="1" fill="none" fill-rule="evenodd">
        <g id="langsis---01" transform="translate(-20.000000, -19.000000)" fill-rule="nonzero">
            <g id="header">
                <g id="mentora-toronto-logo" transform="translate(20.000000, 19.000000)">
                    <g id="Group-2">
                        <path d="M9.9537033,5.98241114 C10.329098,5.60179764 11.3835302,4.58585089 12.349903,3.71927911 L12.305547,3.64720057 C11.5381241,4.08325857 10.6216515,4.82328581 10.0199113,5.3588185 C9.94815861,5.53526378 9.90412888,5.70127234 9.83792134,5.92761836 L9.9537033,5.98241114 Z" id="Path" fill="#FFFFFE"></path>
                        <path d="M10.2933853,21.5799848 C10.4812458,22.865981 11.425114,23.870513 12.3859421,24.2191637 C11.6348264,22.7948814 10.922848,21.271124 10.3925336,20.0947129 C10.2933853,20.5310972 10.2323956,21.1328379 10.2933853,21.5799848" id="Path" fill="#FFFFFE"></path>
                        <path d="M40.25335,14.1290985 C39.6956395,12.4510741 38.9282161,10.8940495 37.9784769,9.44204472 C38.8235231,11.5398199 39.2152255,13.7484855 39.1323839,16.1720814 C39.1049877,17.220969 38.9892058,18.3197573 38.7902564,19.4844273 C38.6356626,20.351325 38.4314948,21.2511639 38.1996046,22.1787248 C37.8793285,23.6476895 38.5528215,24.4095682 39.1049877,23.9839469 C39.1160766,23.9839469 39.4197191,23.3769879 39.7178173,22.327774 C39.9549259,21.5492617 40.2089944,20.4892852 40.3580431,19.2691702 C40.5348147,17.7897688 40.5625372,16.0452105 40.25335,14.1290985" id="Path" fill="#FFFFFE"></path>
                        <path d="M9.65733373,5.87954428 C10.0379468,5.48784187 11.094336,4.46439391 12.0747332,3.59325595 L12.0310294,3.51726387 C11.2577354,3.96375859 10.3324573,4.70411168 9.72256323,5.24779824 C9.65733373,5.42261284 9.60286727,5.59644894 9.53763776,5.82475149 L9.65733373,5.87954428 Z" id="Path" fill="#005093"></path>
                        <path d="M8.61219698,37.2362976 C8.22049458,36.3214563 7.91554729,34.9170689 7.77399986,34.121923 C7.65397757,33.9914645 7.27271236,33.5231179 7.2404237,33.5015922 C7.27271236,33.9696126 7.33826772,34.5136254 7.36011966,34.775521 C6.06433893,33.5563845 4.89934306,32.2498412 3.99559058,31.1719263 C4.00667948,31.3027112 4.08299788,32.4670549 4.20269338,33.0557497 L4.33315238,33.3492818 C5.53076277,34.8736914 6.92438752,36.2343753 8.50326359,37.3886081 L8.61219698,37.2362976 Z" id="Path" fill="#005093"></path>
                        <path d="M15.2641214,35.5055354 C14.6330275,34.8189966 14.0775999,34.1549619 13.5988165,33.6102968 C13.5440237,34.7100632 13.5988165,36.8769819 14.033896,38.9675822 C14.285029,39.2281734 15.2207438,39.9913569 15.4386101,40.1759556 C15.2318332,38.7823308 15.1339892,36.9311225 15.2641214,35.5055354 Z M17.4639809,27.7970581 C18.302178,28.9617281 19.0529674,30.017791 19.6413363,30.8344625 C20.0219494,29.9845239 20.4469185,29.157742 20.8500356,28.3629229 C20.2182896,27.3499112 19.3800925,26.1415377 18.8031392,25.3904216 C18.0513709,25.6516655 17.2679666,24.8682611 17.3876625,23.8878639 C17.3547217,23.8771014 17.2131742,23.8552494 17.1808856,23.8337238 C16.7670054,23.8444864 16.3094218,23.9420045 15.9940378,24.6278907 C14.8724195,27.6118068 14.6330275,28.2207228 14.055748,30.1701015 C12.7602936,28.3629229 11.7042306,26.5981429 10.3324573,24.8568459 C9.96228101,24.3669736 9.62439289,24.3669736 9.42870485,24.3558847 C8.98221013,24.3669736 8.64464833,24.7260611 8.48124896,25.0420972 C7.61043732,26.5557438 7.29407482,29.2774379 7.25102358,31.5304596 C7.33843088,31.6393925 7.53411892,31.9661912 7.63228879,32.0862135 C7.86091767,28.0475389 8.32926433,25.7279839 9.19975011,25.5867623 C9.75550407,25.5753471 9.98413295,26.0541304 10.1041548,26.2070931 C12.3248877,29.6260886 14.7090196,32.5108563 17.4962696,35.8209189 C17.4962696,35.8209189 17.659669,35.5156458 17.7793649,35.2221137 C17.2242631,34.460235 16.5165246,33.5013639 15.8195495,32.5868484 C16.3642141,30.6273593 16.7559165,29.7565476 17.4639809,27.7970581 L17.4639809,27.7970581 Z M1.83959763,21.3073914 C1.58944313,22.244411 1.39375509,23.245029 1.24079244,24.181396 C1.57900641,24.9116387 1.89439041,25.4230366 1.89439041,25.4337992 C2.44949219,25.7824503 2.98306788,24.834994 2.50428451,23.4413692 C2.26456673,22.7776608 2.01408637,21.9277227 1.83959763,21.3073914 L1.83959763,21.3073914 Z M7.41442296,20.4907203 C7.80612536,19.4128054 8.37264189,18.0517952 8.88436611,16.9520284 C8.51386347,15.8959654 8.28556092,14.9814504 8.0892207,14.1647789 C7.00054276,16.1467726 6.09711661,18.084736 5.56354045,19.4783608 C6.39064867,19.4128054 7.00054276,19.8488634 7.41442296,20.4907203 L7.41442296,20.4907203 Z M37.4646002,23.2998218 C37.1596534,23.2127403 36.876558,23.364725 36.5605219,24.0401744 C35.5592512,26.4575739 35.5915399,26.3701666 34.1874784,28.8309432 C32.6412169,23.1145705 31.7485533,23.1468587 31.3343472,23.1044596 C30.7358679,23.0496668 30.311551,23.6158575 30.1804402,23.8771014 C29.1028517,25.9892273 28.1446327,27.7527025 26.6965415,30.2356569 C26.7947114,30.4427601 26.9796369,30.791085 27.0993324,31.0298243 C28.1446327,29.0921866 29.288103,27.165312 30.3656916,25.0420972 C30.637698,24.4980843 30.9426448,24.3558847 31.1171336,24.3343586 C31.7704052,24.2688033 31.9008642,24.7700908 31.9990341,24.9217491 C33.5123548,27.872398 34.1545376,29.9845239 34.4161073,31.5529637 C35.6897102,29.6476147 36.331893,28.4601143 37.1596534,26.8926534 C37.4424224,28.2755156 37.5621183,29.5827115 37.5621183,30.5839817 C38.095694,29.7457846 38.5855663,28.9176983 39.0216248,28.1672349 C38.8145215,25.7064578 38.1067829,23.496162 37.4646002,23.2998218 L37.4646002,23.2998218 Z M35.3413854,10.8338428 C35.3518221,11.0402939 35.2761559,11.3452407 34.9712091,11.3886183 C34.8078092,11.399055 34.5795067,11.3341518 34.3727297,11.2144558 C36.6479292,14.3725343 37.8889171,17.0064953 38.8145215,19.6740488 C39.0320615,18.4982899 39.1736089,17.3985236 39.2173128,16.3431128 C38.2486572,14.2629492 36.8113285,11.9111055 35.243215,9.91867511 C35.2761559,10.1910079 35.3084445,10.5937987 35.3413854,10.8338428 L35.3413854,10.8338428 Z M40.9263211,21.1991106 C40.752485,20.5562757 40.4909153,19.6959008 40.2841383,19.0641547 C40.1425909,20.3168838 39.9035253,21.4055617 39.6641334,22.1997286 C39.7071851,22.3526917 39.816118,22.711127 39.8705845,22.8647418 C39.9902804,23.2557916 40.4152495,23.8229608 40.8610921,22.9081194 C40.8610921,22.9081194 41.1774541,22.3308398 40.9263211,21.1991106 L40.9263211,21.1991106 Z M32.7824384,37.2471587 C33.3160146,35.4174754 32.9680161,33.261972 32.4455288,31.6941848 C31.2472662,33.4468974 29.9407225,35.2002618 28.8416083,36.5827976 C28.9283629,37.2145437 28.9828294,37.8567264 28.9397782,38.5096722 C30.5069131,36.7351081 31.7267018,35.047625 32.412588,34.2857467 C32.3796471,35.0150105 32.2710405,36.6157385 31.661146,38.1613479 C31.9771822,37.9548968 32.3140918,37.7376831 32.6304543,37.5084021 L32.7824384,37.2471587 Z M25.3896714,32.4453009 C25.0742879,32.9465884 24.6822592,33.6001864 24.3228459,34.1768134 C24.3124092,34.1441988 23.3541903,32.4453009 22.199957,30.5392998 C21.7534622,31.4000006 21.3399084,32.1732945 20.9915835,32.8262403 C21.8839208,34.1549619 22.5808963,35.2540761 23.3760417,36.659116 C23.4305082,36.7572864 23.593908,36.9425377 23.7025146,37.0407076 C24.2905572,35.9839924 24.9979695,34.7100632 25.8042038,33.3275278 C25.6730931,33.0555214 25.4989307,32.6850187 25.3896714,32.4453009 L25.3896714,32.4453009 Z M21.5251597,41.2538705 C21.557122,41.1557002 21.6014776,41.0686192 21.6448552,40.9704488 C21.0672493,40.0128825 20.1638231,38.6078426 19.0210051,36.9745 C18.9228352,37.2145437 18.8357537,37.43241 18.7160582,37.6930012 C18.6615913,37.8893414 18.4326366,38.1727626 18.0513709,38.1727626 C17.9972308,38.1727626 17.8993867,38.129385 17.8664459,38.129385 C18.6178879,38.9894341 19.4668476,40.0233193 20.196764,40.9055457 C20.305371,41.0575303 20.4146298,41.1883151 20.5017112,41.3295367 L20.6432587,41.3295367 C20.9045021,41.3295367 21.1549829,41.3295367 21.3940485,41.3086633 L21.5251597,41.2538705 Z M27.4584198,39.9466745 C27.5132126,39.4900694 27.4368942,38.8478862 27.3931907,38.3573618 C26.6198968,39.2614405 25.8364925,40.1863923 25.2706281,40.8181384 C25.9672773,40.6550653 26.6417488,40.4590509 27.3061093,40.2300962 L27.4584198,39.9466745 Z M27.0344292,1.50311232 C27.1756508,1.36156489 26.9685475,1.11075775 26.522705,0.849514348 C25.5207826,0.555003788 24.485919,0.326701232 23.4086567,0.185479652 L24.0071356,0.523041449 C26.4564974,1.88405168 26.946696,1.5791044 27.0344292,1.50311232 Z M31.6177689,8.26348064 C30.9318822,7.58900969 30.2459956,6.95758951 29.6253385,6.39107251 C29.7016569,7.40408423 29.690568,9.0481898 29.2766878,11.2685964 C29.9407225,12.1071194 30.5290909,12.9241168 31.0734297,13.664144 C31.5851539,11.2685964 31.6392945,9.4721804 31.6177689,8.26348064 L31.6177689,8.26348064 Z M32.1076412,20.4036389 C32.2925662,21.9061966 33.2615481,23.0496668 34.230856,23.2675331 C33.6428133,21.8194419 32.9027866,20.3273205 32.140582,18.945111 C32.0642902,19.3691016 32.0313228,19.9577964 32.1076412,20.4036389 Z M33.0658601,4.25709513 C33.5227915,4.84546361 33.7954501,5.31381026 34.0893081,5.89043766 C35.6786209,7.15327755 36.8984095,8.3078367 37.8455395,9.20017396 C37.8351028,9.18941138 37.8236881,9.16821162 37.8132513,9.1567964 C36.5171443,7.24068485 34.9278315,5.55287586 33.0877116,4.15925111 L33.0658601,4.25709513 Z M34.3727297,16.7563408 C34.0244049,16.6911113 33.6098725,16.8215698 33.3378665,17.0064953 C35.05829,19.7614561 35.7334136,21.58005 35.9728056,22.5050022 C37.26826,20.7304381 36.7131582,17.1597838 34.3727297,16.7563408 Z M29.3314806,19.5220647 C29.7450344,18.3678314 30.1589146,17.0935763 30.4309211,16.1467726 C29.9302858,15.3845675 29.3748581,14.5349557 28.732349,13.6312032 C28.3840242,14.9273098 27.8181598,16.6581705 27.1756508,18.3785944 C28.0901663,18.4222978 28.8416083,18.8684667 29.3314806,19.5220647 Z M14.3388433,23.9093896 C14.4040728,23.8771014 14.5456202,23.7574054 14.6000867,23.7133757 C16.5491395,22.0043669 15.9069568,18.1502914 12.9885961,17.8453446 C12.4882871,17.8453446 11.932859,18.0191807 11.5515938,18.2266098 C12.3030358,20.1756627 14.1972959,23.5936797 14.3388433,23.9093896 L14.3388433,23.9093896 Z M17.4310401,3.09209879 C17.7363132,3.73428202 18.1713932,4.5291011 18.6283246,5.25901748 C19.0210051,4.60541951 19.3145371,4.06075445 19.5865435,3.54968287 C19.0640568,2.79824088 18.6178879,2.07973972 18.2584742,1.34982335 C18.1606301,1.15446163 18.0194086,1.11075775 17.9098235,1.09966885 C17.7144617,1.11075775 17.5073585,1.15446163 17.2242631,1.44831954 C15.9940378,2.90684747 15.2318332,3.82168932 14.3499322,4.93221873 C14.4588651,5.57472734 14.6767314,6.23876203 14.8835084,6.84833027 C15.6786538,5.68366072 16.6577461,4.23589537 17.4310401,3.09209879 L17.4310401,3.09209879 Z M20.3706001,22.7991865 C20.7952433,23.4413692 21.1980341,23.9641823 21.3836118,24.0515896 C22.21072,24.3669736 23.4843225,23.527798 22.8535549,22.0480708 C22.4393484,21.2855394 21.9820911,20.4362539 21.6233296,19.7614561 C21.1765085,20.8719856 20.7629546,21.9277227 20.3706001,22.7991865 L20.3706001,22.7991865 Z M22.515341,10.8553684 C23.4957377,8.37306621 23.6369593,7.86101566 23.8440625,7.13142561 C23.7351296,6.98955185 23.5609672,6.7612493 23.462471,6.63079076 C23.3323383,6.91388563 23.1359981,7.29482499 22.8091989,7.8176381 C21.8623952,6.60926467 21.0672493,5.57472734 20.490296,4.82361166 C20.2182896,5.42241686 19.9247575,6.04307399 19.5865435,6.6849309 C20.3927783,7.88286761 22.4938153,10.8338428 22.515341,10.8553684 L22.515341,10.8553684 Z M16.8645231,1.28492017 C17.1913223,1.03476567 17.5614986,0.544567068 17.7578388,0.196242695 C16.886375,0.315938188 16.5602284,0.370078793 15.7217055,0.609796571 C15.4170845,0.881803011 15.3078253,1.09966885 15.2973886,1.24154261 C15.1770404,1.87296279 15.7976976,2.15605812 16.8645231,1.28492017 L16.8645231,1.28492017 Z" id="Shape" fill="#005093"></path>
                        <path d="M25.7059036,2.18873781 C25.7711326,2.24353059 25.8582141,2.28690815 25.8908286,2.30843377 C29.6685857,4.79106232 32.2275326,7.18628356 33.5882165,8.46021235 C33.5559279,8.30790187 33.5340759,8.04633215 33.5125503,7.88293278 C32.8374267,7.15334272 31.9989038,6.28253109 31.2259361,5.53108909 C30.7471528,4.31195262 30.7034489,4.07223484 29.9630962,3.05987577 C30.7686784,3.52757025 31.8025635,4.30086372 32.4776871,4.82400316 C32.4561615,4.79106232 32.2819991,4.4642631 32.2604735,4.420886 C31.8792078,3.76761388 31.5194682,3.34264478 31.0736257,2.87495031 L30.8224927,2.67861009 C29.7018524,2.03642733 28.5254413,1.5031775 27.2844533,1.08864512 C28.3620419,2.13394503 28.9504104,3.2888305 29.1245728,3.87622095 C28.7765743,3.6042145 27.0342988,2.60229169 25.7274292,2.10165684 L25.7059036,2.18873781 Z" id="Path" fill="#005093"></path>
                        <path d="M28.9719688,5.79259364 C27.7417435,4.72544179 26.4789036,3.66905251 25.7056096,3.06013645 C25.9671793,4.35559133 25.912387,5.53102392 25.7926911,6.71787174 L25.8579206,6.72928696 C26.2280969,5.87967462 26.3914963,4.98701104 26.4896666,4.43158341 C26.96845,4.63868667 28.0900683,5.30239504 28.9282654,5.84738642 L28.9719688,5.79259364 Z" id="Path" fill="#005093"></path>
                        <path d="M9.98413295,7.01182764 C10.9416992,6.24962307 11.6716156,5.66223263 12.063318,5.34619645 C12.1944287,5.87977261 12.3793542,6.59794744 12.6079831,7.1967531 C11.4534235,8.77530285 10.3758349,10.3871198 9.52654887,11.737367 C9.67918567,12.5214235 9.89639933,13.414087 10.1909099,14.4482985 C11.0728104,12.8478964 12.183014,10.985925 13.4680317,8.97164307 C14.3280807,11.3238131 16.8429975,16.5385725 18.8357537,20.164345 C19.2493081,19.1086083 20.0548902,17.0610593 20.087831,16.9416896 C18.7483464,14.4375355 17.7141354,12.4444529 17.0390118,11.1708504 C16.9522567,11.3994793 16.8429975,11.5739676 16.7343909,11.7810708 C16.4186805,12.3254096 16.2008147,12.3580241 15.9288083,12.3143207 C15.4275208,12.2490912 15.2536847,11.6825746 15.2103071,11.5628787 C15.1992182,11.5410267 13.1849363,6.84842826 12.7932344,3.84363878 C12.4445832,4.19228948 12.063318,4.61725857 11.7913116,4.91079063 C11.1266247,5.61820289 10.4958572,6.33670404 9.95086578,6.97921312 L9.98413295,7.01182764 Z" id="Path" fill="#005093"></path>
                        <path d="M8.07868599,6.61973421 C7.14199267,7.54501231 6.06407778,8.68848256 5.69390146,9.11345166 C5.8031607,8.10109259 5.96656008,7.43640524 6.20562568,6.78313359 C5.55235356,7.41487962 4.97540031,8.05673652 4.45323937,8.62325306 C4.07164783,9.96208549 4.06121111,10.9855339 4.02827027,11.8788497 C4.02827027,12.2053221 4.19166965,12.4228621 4.47476499,12.433951 C5.43298392,10.9855339 6.50013624,9.5380949 7.78450175,7.96965508 C7.89376099,7.43640524 8.01345649,6.86988871 8.07868599,6.61973421" id="Path" fill="#005093"></path>
                        <path d="M1.03421101,14.1430901 C0.446168392,15.8964549 0.0975176964,17.7584263 0,19.6853009 C0.108932918,20.3927132 0.282769015,21.2309103 0.435732141,21.8196046 C0.652945799,20.8173559 0.903752475,19.8487003 1.24098795,18.8793924 C0.979418229,17.2900797 0.881900533,15.5915076 1.03421101,14.1430901" id="Path" fill="#005093"></path>
                        <path d="M2.56938367,30.4528054 C2.54785805,30.0611034 2.50415416,29.3641279 2.50415416,29.2659576 C2.14474042,28.8194628 1.78565301,28.3736203 1.1542333,27.5243343 C1.52408329,28.5582194 1.97090433,29.5712312 2.49306527,30.5291238 L2.56938367,30.4528054 Z" id="Path" fill="#005093"></path>
                        <path d="M10.0057889,21.6232972 C10.1907139,22.929841 11.1489328,23.9418737 12.1068259,24.2905249 C11.3557102,22.8531963 10.6375349,21.3180236 10.1039593,20.1318284 C10.0057889,20.5672343 9.94055941,21.1768025 10.0057889,21.6232972" id="Path" fill="#005093"></path>
                        <path d="M40.2519153,14.0997782 C39.6857246,12.412295 38.9124307,10.833419 37.9542118,9.37456471 C38.8038236,11.4870169 39.195526,13.7191647 39.1192076,16.1685265 C39.086919,17.2249153 38.9773339,18.3351189 38.7819722,19.5108778 C38.6185723,20.3823416 38.4114695,21.2965308 38.1831665,22.2328978 C37.8566941,23.7132777 38.5422544,24.4865716 39.086919,24.0514916 C39.0973557,24.0514916 39.4133919,23.4412712 39.7183392,22.3858609 C39.9577306,21.590715 40.2078851,20.5235632 40.349433,19.2933378 C40.5346843,17.801869 40.5676252,16.0377417 40.2519153,14.0997782" id="Path" fill="#00A3DA"></path>
                        <path d="M38.977595,28.0143697 C38.5751296,28.7762484 38.095694,29.5828091 37.5621183,30.409591 C36.7350101,31.6835202 35.7767912,32.9900635 34.6662618,34.2633401 C34.6773507,33.5347286 34.6988763,32.6525017 34.4924257,31.4330394 C34.2197671,29.8763411 33.5775843,27.7638889 32.0538269,24.8135663 C31.9657674,24.6720184 31.7270277,24.148879 31.0841927,24.2147607 C30.8989414,24.2362868 30.5835574,24.3784864 30.3219877,24.9218471 C29.2440733,27.0558245 28.1883362,28.819626 27.1100954,30.769331 C27.0014883,30.5185239 26.9033185,30.300658 26.7947114,30.0827922 C26.184491,28.7547228 25.7494115,27.8620592 24.4317788,25.40063 C24.0400764,24.7701888 23.5717298,24.726159 23.1578496,24.7701888 C22.6024219,24.9218471 21.6986695,26.4035313 20.7848066,28.2208208 C20.3598375,29.0267293 19.9462831,29.8972146 19.5545812,30.7363902 C18.7375839,32.5435688 18.0190827,34.2747554 17.6815209,35.1021894 C17.5614986,35.385937 17.4962696,35.5705361 17.4744176,35.5812991 C14.6985834,32.2601472 12.3897909,29.451372 10.179821,26.0434654 C10.0712139,25.8918071 9.72256323,25.4231341 9.17789817,25.4554228 C8.30708654,25.5868598 7.74089586,27.7090966 7.5236822,31.7383125 C7.425186,31.6179644 7.33843088,31.4982689 7.26211248,31.3782466 C5.80325823,29.3642911 5.28044511,28.5375092 4.10501252,26.3369975 C3.73450988,25.6732886 3.4295626,25.6299115 3.1794081,25.651763 C2.72182449,25.8154887 2.32946991,27.3940389 2.40611463,29.4846392 C2.42796657,29.8215483 2.44949219,30.169221 2.49286975,30.5292869 C2.72182449,30.954256 2.95012704,31.356721 3.21169676,31.7702749 L3.22278566,31.7816901 C3.29845188,31.8899708 3.35291834,31.9887934 3.4295626,32.0970741 C3.4295626,32.1084893 3.44032564,32.1084893 3.45108869,32.1185997 C3.51631772,32.2167696 3.59296244,32.3149399 3.65819148,32.4238729 C3.65819148,32.4346359 3.66928085,32.4453985 3.66928085,32.4453985 C3.73450988,32.5435688 3.8101761,32.6525017 3.88682036,32.7389305 L3.89790926,32.7614346 C4.02804194,32.957449 4.19144132,33.1638996 4.33331507,33.3484988 C4.2351452,32.8485161 4.1810046,32.3149399 4.12653814,31.7383125 C4.07174582,31.0631889 4.0613091,30.3228358 4.12653814,29.5387793 C5.11704573,31.0299222 5.80325823,32.0536965 7.30581636,33.8174976 C7.4140971,33.9264305 7.51226698,34.0454743 7.61043732,34.1769113 C7.81721426,35.3640855 8.10063545,36.4305852 8.5031009,37.3891299 L8.5141898,37.3891299 C8.64432201,37.4866481 8.77543319,37.584818 8.91698063,37.6829883 C8.93883257,37.6930987 8.96068451,37.7045139 8.98221013,37.7253874 C9.14560951,37.8343203 9.33086083,37.9439059 9.49426067,38.0636014 C9.79920748,38.2592894 10.1256804,38.4556296 10.4413902,38.6408809 C10.1361171,37.9657573 9.88596261,37.2038786 9.67885934,36.34383 C10.5499973,37.1712641 12.2267174,38.7706873 14.3388433,40.3498897 C14.3603689,40.3606527 14.3936361,40.3606527 14.4151617,40.3717416 C14.5351835,40.4147929 14.6437906,40.437297 14.7527235,40.4695856 C14.80719,40.4914376 14.8619827,40.5028523 14.905034,40.5243784 C15.0354925,40.5569929 15.1773663,40.6003705 15.3185879,40.6326587 C15.3622917,40.6437481 15.4170845,40.6551628 15.4604616,40.6766889 C15.4819877,40.6766889 15.4927503,40.6874515 15.5149281,40.6874515 C15.8632529,40.7748588 16.2119036,40.8622661 16.5605548,40.9271693 C16.2008147,40.6437481 15.8195495,40.3391271 15.4170845,39.9914544 C15.1988924,39.8058773 14.9816787,39.620626 14.7416346,39.4135227 C14.491806,39.196309 14.2517623,38.9784427 14.0123704,38.7706873 C11.845778,36.8115245 10.179821,34.9502053 9.43946789,34.1221186 C9.47240873,32.6198872 9.49426067,31.6293796 9.92934017,29.3642911 C10.9746401,30.7138861 11.9214443,31.9555262 13.5880535,33.8501126 C14.0772736,34.394125 14.6219386,35.0151085 15.2318332,35.679469 C15.841401,36.34383 16.5380507,37.0724416 17.3009074,37.8891131 C17.4962696,38.0962163 17.7359874,38.2266749 17.9864677,38.2811413 C18.0079938,38.2811413 18.0295194,38.2925566 18.0513709,38.2925566 C18.4433996,38.3241926 18.7157319,38.0198979 18.8031392,37.8343203 C18.9009832,37.5623139 18.9991536,37.3343376 19.0966713,37.0841831 C19.6520989,35.7228466 20.1853487,34.6015546 21.0786645,32.9134193 C21.426663,32.2601472 21.8082546,31.5312093 22.2870379,30.6590933 C22.6024219,30.0726813 22.9621615,29.4073423 23.3649528,28.6888411 C24.2471797,30.3446878 24.737052,31.2810548 25.3244424,32.5328058 C25.4444642,32.7829603 25.5530708,33.0334411 25.6730931,33.3168628 C24.8890366,34.6990723 24.1923869,35.9074457 23.6154336,36.9527461 C22.6790667,38.5975034 22.015032,39.8593652 21.5789735,40.8730291 C21.5137445,41.0135981 21.448515,41.1766716 21.3937222,41.3087608 C21.5251597,41.3087608 21.6663808,41.3087608 21.8082546,41.297346 L21.8297806,41.297346 C22.21072,41.2754941 22.5919852,41.2432054 22.9621615,41.2105909 C24.0074619,39.381234 24.5299487,38.5860886 26.5660825,35.5056329 C26.9144074,36.6158365 27.1759771,37.6063436 27.2845837,38.5097702 C27.3609021,39.1199906 27.382754,39.6962917 27.3061093,40.2301937 C27.8282702,40.0563576 28.3621723,39.8492544 28.8738965,39.6313885 C28.9616301,39.2396866 29.0154444,38.8147175 29.03697,38.4014895 C29.0588219,37.7593067 29.0154444,37.1057087 28.9283629,36.4954883 C28.7104971,35.1132783 28.3187952,33.8608752 28.0794032,33.1537892 C29.1569918,31.4000986 29.8869082,30.2465179 31.0082006,28.1888585 C31.4217545,29.1356622 31.9876189,30.3763243 32.4018254,31.7816901 C32.8590832,33.3484988 33.1310891,35.1240414 32.7824384,36.9093685 C32.7938537,36.8986055 32.7824384,36.9204574 32.7824384,36.9093685 C32.7609128,37.0841831 32.6956833,37.2795448 32.6307801,37.5075215 C32.6627425,37.4758851 32.6845944,37.4651225 32.7172089,37.4325075 C32.8479938,37.344448 32.9676898,37.2580192 33.0877116,37.1712641 C33.1421785,37.1383233 33.1744667,37.0949457 33.2292595,37.0623312 C33.272637,37.0183014 33.3163404,36.9961232 33.3711332,36.9527461 C34.5028624,36.0711714 35.5266367,35.0692486 36.4515889,33.9919863 C36.6264035,33.7734679 36.8002396,33.5562542 36.985491,33.3383884 C37.1051869,33.1638996 37.2137935,33.0115891 37.3338153,32.8485161 L37.3553414,32.8485161 C37.4968888,32.6417392 37.6498515,32.4238729 37.7910731,32.2066592 L37.802162,32.2066592 C37.8670652,32.0970741 37.9322947,31.9995559 37.9870874,31.9013861 C38.0089394,31.8798604 38.019702,31.8465933 38.030465,31.8250677 C38.0852573,31.7484234 38.1390716,31.6619941 38.1938644,31.5853499 C38.2049533,31.5638243 38.2268052,31.5312093 38.2486572,31.4982689 C38.302471,31.4216242 38.3465012,31.3466106 38.3791157,31.2693137 C38.4006413,31.237025 38.4117302,31.2044105 38.4335822,31.1721219 C38.4988117,31.0954776 38.5314262,31.0083962 38.5855663,30.9324041 C38.6074183,30.8994632 38.6185072,30.8776113 38.6292702,30.8453231 C38.7055886,30.7363902 38.7600551,30.6382198 38.8037585,30.5185239 C38.8141952,30.5077613 38.8360471,30.4643837 38.847136,30.4529685 C38.9016025,30.3662134 38.9453064,30.289895 38.977595,30.2031404 C38.977595,30.1917251 38.9886839,30.169221 39.0108617,30.1591101 C40.0776877,28.1011248 40.8069515,25.8255996 41.1226618,23.4303778 C40.9922028,23.7796812 40.2955536,25.6299115 38.977595,28.0143697" id="Path" fill="#00A3DA"></path>
                        <path d="M7.46892224,20.3387685 C7.05536836,19.6959331 6.4454738,19.2716162 5.62847645,19.3257568 C5.60695083,19.3257568 5.59651411,19.3257568 5.57466217,19.3368457 C3.06985582,19.9790285 3.2443441,24.4765916 5.24786341,25.5969055 C6.67377636,26.4034661 8.10066827,25.0199518 8.15448255,22.8318338 C8.15448255,22.0373406 7.9372689,21.0458545 7.46892224,20.3387685" id="Path" fill="#00A3DA"></path>
                        <path d="M29.3748905,19.3910515 C28.8739293,18.7599576 28.1446651,18.3134629 27.2298237,18.2700854 C27.0559876,18.2700854 26.8707363,18.2700854 26.6858113,18.291611 C23.7896284,18.9885865 23.5717626,22.8863654 25.716503,24.3236941 C27.6,25.5751187 30.0170732,24.1058278 30.0937179,21.6558137 C30.1152436,20.828706 29.8536738,20.0120345 29.3748905,19.3910515" id="Path" fill="#00A3DA"></path>
                        <path d="M11.9981865,2.4172687 C12.1178825,2.47206148 12.6622212,2.5699055 14.5786591,1.14333991 C14.7743471,0.991355756 14.9485095,0.871333471 15.0903833,0.762400553 C14.1321644,1.02364395 13.2065599,1.36153207 12.2920444,1.76399705 C11.9433937,2.05818128 11.7914096,2.30866211 11.9981865,2.4172687" id="Path" fill="#00A3DA"></path>
                        <path d="M21.5467177,1.37209913 C22.5590772,1.87306031 23.5172961,1.5570246 23.2775783,0.806234779 C23.2557264,0.708064435 23.1471193,0.446821039 22.7984686,0.131111183 C22.7877061,0.120022285 22.776943,0.120022285 22.7658541,0.109259241 C22.0802938,0.0437038841 21.3617927,-1.25685306e-14 20.6432915,-1.25685306e-14 C20.5121803,-1.25685306e-14 20.3817218,0.0114152216 20.2617,0.0114152216 C20.4684769,0.501613821 20.9368236,1.06715185 21.5467177,1.37209913" id="Path" fill="#00A3DA"></path>
                        <path d="M36.0597885,22.3743149 C35.809634,21.4594735 35.1563624,19.7175244 33.4248495,16.9632153 C32.8041924,15.9508562 32.0312248,14.8184748 31.0951836,13.533783 C30.5619338,12.7934299 29.9631286,11.9989367 29.2984417,11.1604137 C28.2968452,9.89692116 27.153375,8.51471163 25.8582464,7.01182764 C25.999468,5.59602509 26.086549,4.73597603 25.8582464,3.33191456 C26.7835245,4.07226766 28.1230091,5.12800429 29.6252409,6.51086647 C30.2674237,7.077383 30.9321106,7.69771428 31.6176709,8.37283787 C32.4017274,9.16765743 33.2180726,10.0283582 34.0347441,10.9533104 C34.0347441,10.9533104 34.0347441,10.9422215 34.045833,10.9533104 C34.1981435,11.1493248 34.3396909,11.2690203 34.4593869,11.3557754 C34.6550749,11.4650347 34.8295636,11.4868866 34.992963,11.4754714 C35.2979098,11.4324197 35.4613097,11.2253169 35.4502208,10.8440512 C35.4280425,10.6049856 35.4065169,10.3652678 35.3631393,10.1036981 C35.2431175,8.94979113 34.9711111,7.51278881 34.2310843,5.99914225 C33.9365737,5.38924815 33.5559607,4.79076881 33.087614,4.170438 C33.0765251,4.15902278 33.0657621,4.14858606 33.0546732,4.14858606 C32.7063484,3.88701634 32.358024,3.63686184 31.9989361,3.40823296 C31.9989361,3.39714406 31.9770846,3.38605517 31.9659953,3.3759443 C31.7807439,3.25527031 31.6072342,3.13557434 31.410894,3.02696728 L31.4001309,3.02696728 C31.204117,2.90727179 31.0185394,2.79866472 30.822525,2.67831658 C31.301961,3.16851518 31.7703077,3.76732038 32.1838616,4.47505896 C32.7063484,5.36772207 33.1528431,6.44563696 33.4029976,7.77435853 C33.4359384,7.92634316 33.4688793,8.08974254 33.5011679,8.25314191 C32.140484,6.96812422 29.7123219,4.69259847 25.9450015,2.22138515 C25.5966767,1.99243041 25.248026,1.77489043 24.8892649,1.54626155 C24.660636,1.42656559 24.4101552,1.27360293 24.1593485,1.28469183 C23.898431,1.31763267 23.898431,1.37209913 24.1593485,2.46045075 C24.2141409,2.73310937 24.3119849,3.45161052 24.1374966,5.06277526 C22.4069622,3.1248113 22.1453925,2.82019034 21.2745809,1.81826799 C21.0022486,1.52473593 20.7847086,1.50288399 20.5997836,1.52473593 C20.4683466,1.56876567 20.3382139,1.62225363 20.2400435,1.84077211 C20.0003258,2.41739951 19.7716969,2.91836069 19.4996909,3.46204724 C19.2381212,3.96333474 18.9335002,4.48549568 18.5525609,5.15018255 C17.9756071,6.12960078 17.1915506,7.3816781 16.0268806,9.21136085 C15.7004077,8.49253384 15.2969642,7.63248478 14.9594024,6.7176434 C14.7310999,6.10807516 14.5455227,5.47632913 14.4369157,4.82338333 C14.2738421,3.9303939 14.2409013,3.00511581 14.4806195,2.12354113 C14.5787894,1.84077211 14.4043011,1.8071791 14.3172197,1.82968322 C13.4248824,2.01460821 10.266804,5.16094513 9.63538426,5.79269116 C10.1255824,4.32242216 10.3326857,3.7125276 11.5299702,2.26508903 C11.6385773,2.13397785 11.6715181,2.09060029 11.6933696,2.03646015 C7.82787931,3.89777891 4.62707547,6.93583556 2.5478904,10.6806518 C2.47124614,10.8336145 1.67642659,12.4121647 1.17579127,13.718708 C3.42946508,9.62491519 7.99127869,5.28064109 8.90579421,4.55105104 C8.48115097,5.32434498 8.15435221,5.97761663 7.88267163,7.02291654 C7.81744259,7.29492298 7.75221309,7.58910722 7.69742031,7.92634316 C6.4019659,9.48336729 5.30187321,10.9751624 4.35506949,12.4121647 C2.96144427,14.5464684 1.92723326,16.5930389 1.20840625,18.672224 C0.881933353,19.6522949 0.598838014,20.6323658 0.380971709,21.622547 C0.272365115,22.0807833 0.196046714,22.5488036 0.108965738,23.0171503 C0.282801835,24.4649152 0.598838014,25.8588663 1.03424383,27.2084613 C1.03424383,26.5666048 1.08871029,25.7929846 1.12132481,25.5102156 C1.17579127,25.0969875 1.23025773,24.6935441 1.29548723,24.2796639 C1.44779771,23.3547121 1.62228598,22.4291077 1.8727668,21.4927407 C2.71128978,18.2156189 4.28951367,14.7858603 7.51249531,10.2021948 C7.54510983,11.214228 7.61033933,12.4884831 8.01345649,14.2738098 C8.20914452,15.1126591 8.45929902,16.0265219 8.80795019,17.0832375 C9.14583784,18.0414565 9.55939218,19.0971931 10.0815527,20.272952 C10.5828402,21.4594735 11.2142603,22.7666695 11.9764649,24.2255237 C12.1284495,24.5298184 12.3032641,24.8465072 12.4771002,25.1618907 C13.2285422,26.3369975 14.4043011,25.8040735 14.5787894,24.8018248 C14.600315,24.7369216 14.6107517,24.6286409 14.6107517,24.5523225 C14.6107517,24.3344566 14.6107517,24.2362868 14.41539,23.8445844 C14.2849315,23.5393112 14.0233618,23.049439 13.555341,22.1564491 C12.8035731,20.6975948 12.1832418,19.3691996 11.6601029,18.1715887 C11.050861,16.7127349 10.6043658,15.4280431 10.2560414,14.3064243 C9.95109412,13.2829763 9.74431718,12.4010758 9.59233256,11.6173451 C9.27597052,9.82060276 9.29782246,8.63440759 9.31967394,7.86111366 C10.1908119,6.82690264 10.8548466,6.05393503 11.8235022,5.00863465 C12.0961609,4.71477674 12.4011081,4.40950313 12.7383436,4.06117876 C12.9235949,6.16254162 14.6655445,10.6049856 15.1009503,11.6173451 C15.1554168,11.7262781 15.3840457,12.3576982 15.9068588,12.4121647 C16.1788652,12.4555423 16.4511975,12.4444529 16.7776704,11.8893516 C16.8976923,11.7044261 17.0062993,11.5084122 17.1044692,11.3234868 C18.0949768,9.61382582 18.9335002,8.14420899 19.6415647,6.80472438 C19.989889,6.15145273 20.2948363,5.53112191 20.5668428,4.93231625 C20.763183,4.48549568 20.9366927,4.07226766 21.1000926,3.63686184 C21.7866314,4.58399188 22.1887701,5.15018255 23.4193218,6.75091057 C23.5171658,6.8813691 23.6260987,7.01182764 23.7242686,7.1537014 C23.5171658,7.89372817 23.4304107,8.23161629 22.4607765,10.7246816 C21.9497045,12.0419879 21.1982625,13.9473369 20.0443555,16.8327567 C19.6520014,17.8014124 19.2381212,18.8682384 18.7593378,20.0658488 C18.3242578,21.1444158 17.8559112,22.3410482 17.3441874,23.6267185 C17.3112466,23.7131473 17.3112466,23.7897916 17.2893947,23.8762204 C17.0607658,25.1618907 18.1608585,25.782222 18.9012116,25.4988003 C18.9335002,25.4886899 18.9768773,25.4661858 19.0209075,25.4453124 C19.2929135,25.3031123 19.8150744,24.3344566 20.4468205,22.9196326 C20.8280862,22.0374057 21.2530553,21.0022162 21.6881347,19.8920127 C23.2340704,15.9612929 24.9222053,11.0951842 25.4009887,9.33105681 C26.6967694,11.0185399 27.7635954,12.4666312 28.6781109,13.7624119 C29.3313826,14.6766011 29.8972469,15.4929463 30.4089711,16.2662397 C31.0518065,17.2900145 31.6176709,18.2045295 32.1186321,19.0971931 C32.8808371,20.4692922 33.5011679,21.7761619 34.1110625,23.212512 C34.208906,23.4196153 34.2959875,23.6374811 34.3833948,23.8445844 C34.884356,24.9221729 35.7877826,24.5298184 36.0816405,23.7131473 C36.1579589,23.5611627 36.1902475,23.3547121 36.2013364,23.1916386 C36.2013364,23.1916386 36.2013364,22.929743 36.0597885,22.3743149" id="Path" fill="#00A3DA"></path>
                    </g>
                    <g id="Group" transform="translate(52.000000, 14.264151)" fill="#034EA1">
                        <path d="M0.159476464,12.3238684 L2.35346546,12.3238684 L2.35346546,5.19886756 C3.07881565,4.26902328 3.93462438,3.80393845 4.95513732,3.80393845 C5.74865252,3.80393845 6.32136591,4.02506564 6.65566635,4.4562316 C6.99583733,4.89261592 7.16575989,5.63492602 7.16575989,6.63847905 L7.16575989,12.3238684 L9.37116363,12.3238684 L9.37116363,5.19886756 C10.0681392,4.26902328 10.9412337,3.80393845 11.9558761,3.80393845 C12.7718949,3.80393845 13.3217783,4.02506564 13.6619493,4.4562316 C14.0021203,4.89261592 14.1720428,5.63492602 14.1720428,6.63847905 L14.1720428,12.3238684 L16.3148267,12.3238684 L16.3148267,6.61597493 C16.3148267,5.40825368 16.1846941,4.52407029 15.8728977,3.96277165 C15.5666461,3.40734401 15.1188466,2.96541501 14.5405885,2.63078872 C13.9567862,2.3189924 13.3217783,2.15461452 12.6358922,2.15461452 C11.4174079,2.15461452 10.3176415,2.6363334 9.37116363,3.62292699 L8.91749356,4.07627075 C8.89466311,4.03648087 8.8891189,3.99669099 8.86074424,3.96277165 C8.56590736,3.40734401 8.10669306,2.96541501 7.53430552,2.63078872 C6.95050276,2.3189924 6.32136591,2.15461452 5.64102395,2.15461452 C4.40525437,2.15461452 3.32831797,2.6363334 2.35346546,3.62292699 L2.35346546,2.43216517 L0.159476464,2.43216517 L0.159476464,12.3238684 Z" id="Path"></path>
                        <path d="M30.5400078,2.38771159 L30.5400078,3.6518563 C31.514534,2.67700379 32.5859261,2.20082959 33.8102805,2.20082959 C34.4906225,2.20082959 35.1259562,2.35379225 35.6980179,2.67700379 C36.2935617,2.99434432 36.7185308,3.44214386 37.0247824,3.99202728 C37.3365788,4.55332545 37.4895414,5.43750931 37.4895414,6.65044893 L37.4895414,12.3306195 L35.3297981,12.3306195 L35.3297981,6.66740836 C35.3297981,5.65309229 35.1595497,4.92154524 34.8307934,4.49624982 C34.4906225,4.0487766 33.9237796,3.83906416 33.1247202,3.83906416 C32.1156225,3.83906416 31.2594874,4.30382313 30.5400078,5.23334156 L30.5400078,12.3306195 L28.3515635,12.3306195 L28.3515635,2.38771159 L30.5400078,2.38771159 Z" id="Path"></path>
                        <path d="M50.3906979,4.13628189 C49.4438937,4.13628189 48.6673384,4.45394875 48.0665762,5.06579984 C47.4543992,5.68971834 47.1595624,6.47214417 47.1595624,7.43558146 C47.1595624,8.37651464 47.4599435,9.17002984 48.0835361,9.77079204 C48.7012577,10.3604653 49.4892283,10.666717 50.4699513,10.666717 C51.4392591,10.666717 52.2272297,10.3604653 52.8449513,9.74861377 C53.4688703,9.14198104 53.768925,8.36509989 53.768925,7.41275149 C53.768925,6.47214417 53.4404951,5.68971834 52.8054877,5.06579984 C52.1649357,4.45394875 51.3710946,4.13628189 50.3906979,4.13628189 M50.498326,2.36791464 C52.0116467,2.36791464 53.264702,2.84963305 54.2679297,3.83590079 C55.2597416,4.79933808 55.7649427,6.04130453 55.7649427,7.51483537 C55.7649427,8.9492285 55.2489786,10.1393377 54.2395545,11.0805972 C53.2304568,12.0326192 51.943808,12.5091198 50.4076573,12.5091198 C48.9109702,12.5091198 47.6696559,12.0215303 46.6605582,11.0577667 C45.6798347,10.1054183 45.1641969,8.8980234 45.1641969,7.45841191 C45.1641969,6.00151466 45.6798347,4.78857504 46.6889329,3.81894089 C47.6928122,2.84963305 48.9566306,2.36791464 50.498326,2.36791464" id="Shape"></path>
                        <path d="M43.2772425,10.735175 C42.3304388,10.735175 41.8656799,10.1572433 41.8656799,9.02910176 L41.8656799,4.15973169 L45.0116909,4.15973169 L44.7452292,2.3854939 L41.8656799,2.3854939 L41.8656799,0.339249208 L38.1583706,3.96697915 L38.1583706,4.15973169 L39.8872738,4.15973169 L39.8872738,8.57543168 C39.8872738,9.47135662 39.9270637,10.0721188 40.0177329,10.4008746 C40.0914421,10.7240861 40.193526,10.9846773 40.3295292,11.1888451 C40.4430278,11.3760534 40.6015351,11.5573907 40.7942882,11.7103538 C41.3836351,12.2432774 42.1376863,12.5038686 43.0332849,12.5038686 C43.5945836,12.5038686 44.1275071,12.4190705 44.6261854,12.2543663 L44.3372195,10.5597082 C43.9742181,10.6787515 43.6229582,10.735175 43.2772425,10.735175" id="Path"></path>
                        <path d="M67.8783893,10.2645778 C67.3115464,10.7466231 66.699369,10.9847097 66.035987,10.9847097 C65.5996026,10.9847097 65.2366012,10.8542511 64.9476353,10.6220346 C64.6756289,10.3725327 64.5451704,10.0548659 64.5451704,9.66936033 C64.5451704,9.29559634 64.6867178,8.97792948 64.9815547,8.72288248 C65.2705206,8.46783594 65.7753957,8.21246308 66.483786,7.9688313 L67.8783893,7.4815682 L67.8783893,10.2645778 Z M71.3133662,10.7805419 C70.9337317,10.9847097 70.6388948,11.086794 70.4405981,11.086794 C70.1796805,11.086794 70.0606367,10.9168715 70.0606367,10.5822447 L70.0606367,6.41604703 C70.0606367,5.58828663 70.0267179,5.01035488 69.9699681,4.72073683 C69.9076741,4.42622627 69.800046,4.12584517 69.607293,3.81959353 C69.4145404,3.53030133 69.1878686,3.28666955 68.9383662,3.10565809 C68.2241049,2.54403359 67.2433819,2.26648294 66.0474022,2.26648294 C64.6700847,2.26648294 63.5703178,2.58969401 62.7481021,3.25242435 L62.5667644,2.26648294 C62.3968423,2.20973315 62.1982187,2.19831793 62.0168814,2.19831793 C61.0700772,2.19831793 60.1066399,2.96378433 59.1657068,4.49993549 L59.0522077,4.66985758 L59.0522077,2.38552625 L57.0796726,2.38552625 L57.0796726,12.3281083 L59.0522077,12.3281083 L59.0522077,7.12443779 C59.0522077,6.30809261 59.2902947,5.58828663 59.7609247,4.97578336 C60.220139,4.36947648 60.7696961,4.07464007 61.3991593,4.07464007 C61.8241284,4.07464007 62.2888874,4.25597738 62.7764768,4.60201937 L62.9010648,5.27061978 C63.8648284,4.4943908 64.8510961,4.10301472 65.8716091,4.10301472 C67.2150072,4.10301472 67.8783893,4.70410324 67.8783893,5.89421242 L67.8783893,6.36451608 L65.0441745,7.22652167 C64.1143307,7.51548755 63.3941989,7.88990419 62.8955206,8.39412672 C62.3968423,8.89313136 62.13038,9.44268846 62.13038,10.0718253 C62.13038,10.769453 62.3968423,11.3415142 62.91248,11.8010549 C63.4228994,12.2543991 64.0745408,12.4755263 64.8510961,12.4755263 C65.911399,12.4755263 66.9087556,12.16373 67.8444704,11.5117631 C68.0254814,12.1751452 68.5756911,12.5097719 69.522169,12.5097719 C69.8567953,12.5097719 70.1796805,12.4530222 70.4859321,12.3395231 C70.7579386,12.2543991 71.092239,12.078606 71.5344939,11.8463894 L71.3133662,10.7805419 Z" id="Shape"></path>
                        <path d="M20.6527403,4.53551786 C21.123044,4.11609345 21.7352214,3.906381 22.4892726,3.906381 C23.2319086,3.906381 23.8382154,4.11609345 24.2745998,4.53551786 C24.7168546,4.96668382 24.9663565,5.56711969 25.0231062,6.36096075 L19.7228965,6.36096075 C19.8474845,5.56711969 20.1706956,4.96668382 20.6527403,4.53551786 M23.1069942,10.6462022 C22.1151823,10.6462022 21.3047076,10.3572363 20.6866597,9.80767923 C20.0630675,9.24051005 19.7287671,8.48645888 19.6720173,7.5344368 L27.075221,7.5344368 L27.075221,7.27906395 C27.075221,5.73182389 26.6668855,4.50159852 25.8335809,3.57762525 C25.0006021,2.65365151 23.8835495,2.19998143 22.4892726,2.19998143 C21.0437906,2.19998143 19.8474845,2.66506673 18.9463412,3.61741513 C18.0393269,4.56976352 17.5801126,5.79411789 17.5801126,7.30189392 C17.5801126,8.3109921 17.8012403,9.19517549 18.2320799,9.97173079 C18.657049,10.7371972 19.2356334,11.3438299 19.9440237,11.8027184 C20.6697002,12.2505179 21.6106334,12.4830603 22.7785648,12.4830603 C23.6115431,12.4830603 24.36005,12.3865211 25.0006021,12.2165986 C25.3802367,12.1200594 25.7712869,11.9726409 26.1509214,11.7743437 L25.9072896,10.0056501 C25.0231062,10.425075 24.0935883,10.6462022 23.1069942,10.6462022" id="Shape"></path>
                    </g>
                </g>
            </g>
        </g>
    </g>
</svg>