<?xml version="1.0" encoding="UTF-8"?>
<svg width="103px" height="35px" viewBox="0 0 103 35" version="1.1" xmlns="http://www.w3.org/2000/svg" xmlns:xlink="http://www.w3.org/1999/xlink">
    <!-- Generator: sketchtool 63.1 (101010) - https://sketch.com -->
    <title>6A493998-C9FB-476A-9DA1-85A94E28CC10</title>
    <desc>Created with sketchtool.</desc>
    <g id="Page-1" stroke="none" stroke-width="1" fill="none" fill-rule="evenodd">
        <g id="langsis---01" transform="translate(-25.000000, -967.000000)" fill-rule="nonzero">
            <g id="footer" transform="translate(0.000000, 944.000000)">
                <g id="mentora-toronto-logo" transform="translate(25.000000, 23.000000)">
                    <g id="Group-2" fill="#CECECE">
                        <path d="M8.29475275,4.98534262 C8.60758164,4.6681647 9.48627521,3.82154241 10.2915859,3.09939926 L10.2546225,3.03933381 C9.61510338,3.40271547 8.85137628,4.01940484 8.34992608,4.46568209 C8.29013218,4.61271982 8.25344073,4.75106028 8.19826778,4.93968197 L8.29475275,4.98534262 Z" id="Path"></path>
                        <path d="M8.57782105,17.9833207 C8.73437147,19.0549842 9.52092831,19.8920942 10.3216184,20.1826364 C9.69568867,18.9957345 9.10237331,17.7259367 8.6604447,16.7455941 C8.57782105,17.1092477 8.52699635,17.6106983 8.57782105,17.9833207" id="Path"></path>
                        <path d="M33.5444584,11.7742488 C33.0796996,10.3758951 32.4401801,9.07837455 31.6487308,7.8683706 C32.3529359,9.61651658 32.6793546,11.4570712 32.6103199,13.4767345 C32.5874898,14.3508075 32.4910048,15.2664644 32.3252136,16.2370228 C32.1963855,16.9594375 32.0262457,17.7093032 31.8330038,18.4822707 C31.5661071,19.7064079 32.1273512,20.3413068 32.5874898,19.9866224 C32.5967305,19.9866224 32.8497659,19.4808232 33.0981811,18.6064783 C33.2957716,17.9577181 33.5074954,17.0744043 33.6317026,16.0576418 C33.7790122,14.8248074 33.8021143,13.3710088 33.5444584,11.7742488" id="Path"></path>
                        <path d="M8.0477781,4.89962023 C8.36495563,4.57320156 9.24528003,3.72032826 10.0622777,2.99437996 L10.0258578,2.93105323 C9.38144618,3.30313216 8.6103811,3.92009307 8.10213602,4.3731652 C8.0477781,4.51884403 8.00238939,4.66370745 7.94803147,4.85395958 L8.0477781,4.89962023 Z" id="Path"></path>
                        <path d="M7.17683081,31.030248 C6.85041215,30.2678802 6.59628941,29.0975574 6.47833322,28.4349359 C6.37831465,28.3262204 6.06059364,27.9359315 6.03368642,27.9179935 C6.06059364,28.3080105 6.1152231,28.7613545 6.13343305,28.9796009 C5.05361577,27.9636538 4.08278588,26.8748677 3.32965882,25.9766053 C3.33889957,26.0855927 3.40249824,27.0558791 3.50224448,27.5464581 L3.61096032,27.7910681 C4.60896897,29.0614095 5.77032293,30.1953127 7.08605299,31.1571734 L7.17683081,31.030248 Z" id="Path"></path>
                        <path d="M12.7201012,29.5879462 C12.1941896,29.0158305 11.7313333,28.4624682 11.3323471,28.0085807 C11.2866865,28.9250527 11.3323471,30.7308182 11.6949133,32.4729851 C11.9041908,32.6901445 12.6839532,33.3261308 12.8655084,33.479963 C12.6931943,32.318609 12.6116576,30.7759354 12.7201012,29.5879462 Z M14.5533174,23.1642151 C15.251815,24.1347734 15.8774728,25.0148259 16.3677803,25.6953854 C16.6849578,24.9871032 17.0390987,24.2981183 17.3750297,23.6357691 C16.8485747,22.7915926 16.1500771,21.7846148 15.6692827,21.1586847 C15.0428091,21.3763879 14.3899721,20.7235509 14.4897188,19.9065533 C14.4622681,19.8975845 14.3443119,19.8793745 14.3174047,19.8614365 C13.9725045,19.8704053 13.5911848,19.9516704 13.3283648,20.5232423 C12.3936829,23.009839 12.1941896,23.517269 11.7131233,25.1417513 C10.633578,23.6357691 9.7535255,22.165119 8.6103811,20.7140383 C8.30190084,20.3058114 8.0203274,20.3058114 7.85725404,20.2965706 C7.48517511,20.3058114 7.20387361,20.6050509 7.06770746,20.8684144 C6.3420311,22.1297865 6.07839568,24.397865 6.04251965,26.275383 C6.11535907,26.3661604 6.27843243,26.6384927 6.36024066,26.7385113 C6.55076473,23.3729491 6.94105361,21.4399866 7.66645843,21.3223019 C8.12958672,21.3127892 8.32011079,21.7117754 8.42012897,21.8392443 C10.2707398,24.6884072 12.2575163,27.0923803 14.5802247,29.8507658 C14.5802247,29.8507658 14.7163908,29.5963715 14.8161374,29.3517614 C14.3535526,28.7168625 13.7637705,27.9178033 13.1829579,27.155707 C13.6368451,25.5227994 13.9632637,24.797123 14.5533174,23.1642151 L14.5533174,23.1642151 Z M1.53299803,17.7561595 C1.32453594,18.5370092 1.16146258,19.3708575 1.0339937,20.1511633 C1.31583868,20.7596989 1.57865868,21.1858638 1.57865868,21.1948326 C2.04124349,21.4853753 2.4858899,20.6958283 2.08690375,19.5344743 C1.88713894,18.981384 1.67840531,18.2731022 1.53299803,17.7561595 L1.53299803,17.7561595 Z M6.1786858,17.0756003 C6.50510447,16.1773379 6.97720158,15.0431627 7.40363843,14.1266903 C7.09488623,13.2466378 6.9046341,12.484542 6.74101725,11.8039824 C5.83378563,13.4556438 5.08093051,15.0706134 4.63628371,16.2319673 C5.32554056,16.1773379 5.83378563,16.5407195 6.1786858,17.0756003 L6.1786858,17.0756003 Z M31.2205002,19.4165182 C30.9663778,19.3439503 30.730465,19.4706041 30.4671015,20.0334787 C29.6327093,22.0479783 29.6596166,21.9751389 28.4895653,24.025786 C27.201014,19.2621421 26.4571277,19.2890489 26.111956,19.2537163 C25.6132232,19.2080557 25.2596258,19.6798812 25.1503669,19.8975845 C24.2523764,21.6576894 23.4538606,23.1272521 22.2471179,25.1963807 C22.3289262,25.3689668 22.4830307,25.6592375 22.582777,25.8581869 C23.4538606,24.2434889 24.4067525,22.63776 25.304743,20.8684144 C25.531415,20.4150703 25.7855374,20.2965706 25.9309446,20.2786322 C26.4753377,20.2240027 26.5840535,20.6417423 26.6658617,20.7681242 C27.9269623,23.2269983 28.4621146,24.9871032 28.6800894,26.2941364 C29.7414252,24.7063456 30.2765775,23.7167619 30.9663778,22.4105445 C31.2020187,23.5629297 31.3017653,24.6522596 31.3017653,25.4866514 C31.7464117,24.7881538 32.1546386,24.098082 32.5180207,23.4726957 C32.3454346,21.4220482 31.7556524,19.580135 31.2205002,19.4165182 L31.2205002,19.4165182 Z M29.4511545,9.02820234 C29.4598517,9.20024491 29.3967966,9.45436725 29.1426742,9.49051522 C29.0065077,9.49921249 28.8162556,9.44512651 28.6439414,9.34537987 C30.539941,11.9771119 31.5740976,14.1720794 32.3454346,16.3950407 C32.5267179,15.4152416 32.6446741,14.4987696 32.681094,13.6192607 C31.873881,11.885791 30.6761071,9.92592127 29.3693459,8.26556259 C29.3967966,8.49250656 29.4237038,8.82816559 29.4511545,9.02820234 L29.4511545,9.02820234 Z M34.1052676,17.6659255 C33.9604042,17.1302297 33.7424294,16.4132507 33.5701153,15.8867956 C33.4521591,16.9307365 33.2529378,17.8379681 33.0534445,18.4997739 C33.0893209,18.6272431 33.1800983,18.9259392 33.2254871,19.0539515 C33.3252337,19.3798263 33.6793746,19.8524673 34.0509101,19.0900995 C34.0509101,19.0900995 34.3145451,18.6090332 34.1052676,17.6659255 L34.1052676,17.6659255 Z M27.3186987,31.0392989 C27.7633455,29.5145629 27.4733467,27.71831 27.0379407,26.4118207 C26.0393885,27.8724145 24.9506021,29.3335515 24.0346736,30.4856647 C24.1069691,31.0121197 24.1523578,31.547272 24.1164818,32.0913935 C25.4224276,30.6125901 26.4389182,29.2063542 27.01049,28.5714556 C26.9830393,29.1791754 26.8925338,30.5131154 26.3842883,31.8011232 C26.6476518,31.6290806 26.9284098,31.4480693 27.1920452,31.2570017 L27.3186987,31.0392989 Z M21.1580595,27.0377508 C20.8952399,27.4554904 20.5685493,28.0001554 20.2690383,28.4806778 C20.260341,28.453499 19.4618252,27.0377508 18.4999641,25.4494165 C18.1278852,26.1666671 17.783257,26.8110788 17.4929863,27.3552003 C18.2366006,28.4624682 18.8174136,29.3783967 19.4800348,30.5492634 C19.5254235,30.631072 19.66159,30.7854481 19.7520955,30.8672563 C20.242131,29.9866604 20.8316413,28.9250527 21.5035032,27.7729398 C21.3942442,27.5462678 21.2491089,27.2375156 21.1580595,27.0377508 L21.1580595,27.0377508 Z M17.9376331,34.3782254 C17.9642684,34.2964168 18.0012313,34.2238493 18.0373793,34.1420407 C17.5560411,33.3440688 16.8031859,32.1732021 15.8508375,30.8120834 C15.7690293,31.0121197 15.6964614,31.193675 15.5967152,31.4108343 C15.5513261,31.5744512 15.3605305,31.8106355 15.0428091,31.8106355 C14.9976923,31.8106355 14.9161556,31.7744875 14.8887049,31.7744875 C15.5149066,32.4911951 16.222373,33.3527661 16.8306366,34.0879547 C16.9211425,34.2146086 17.0121915,34.3235959 17.0847594,34.4412806 L17.2027156,34.4412806 C17.4204184,34.4412806 17.6291524,34.4412806 17.8283737,34.4238861 L17.9376331,34.3782254 Z M22.8820165,33.2888955 C22.9276771,32.9083912 22.8640785,32.3732385 22.827659,31.9644681 C22.1832473,32.7178671 21.5304104,33.4886603 21.0588568,34.0151153 C21.6393978,33.8792211 22.2014573,33.7158758 22.7550911,33.5250802 L22.8820165,33.2888955 Z M22.528691,1.2525936 C22.6463756,1.13463741 22.4737896,0.925631454 22.1022541,0.707928624 C21.2673188,0.462503157 20.4049325,0.272251027 19.5072139,0.154566376 L20.0059463,0.435867874 C22.0470812,1.57004307 22.45558,1.31592034 22.528691,1.2525936 Z M26.3481407,6.88623387 C25.7765685,6.32417474 25.2049963,5.79799126 24.6877821,5.32589376 C24.7513807,6.17007019 24.74214,7.54015817 24.3972398,9.39049704 C24.9506021,10.0892662 25.4409091,10.7700973 25.8945247,11.3867867 C26.3209616,9.39049704 26.3660788,7.89348366 26.3481407,6.88623387 L26.3481407,6.88623387 Z M26.7563676,17.0030324 C26.9104718,18.2551638 27.7179568,19.2080557 28.5257133,19.3896109 C28.0356778,18.1828683 27.4189888,16.9394337 26.7838183,15.7875925 C26.7202419,16.140918 26.692769,16.631497 26.7563676,17.0030324 Z M27.5548834,3.54757928 C27.9356596,4.03788634 28.1628751,4.42817522 28.4077567,4.90869805 C29.732184,5.96106463 30.7486746,6.92319725 31.5379496,7.66681163 C31.5292524,7.65784282 31.5197401,7.64017635 31.5110428,7.63066366 C30.4309536,6.03390404 29.1065263,4.62739655 27.573093,3.46604259 L27.5548834,3.54757928 Z M28.6439414,13.9636173 C28.3536707,13.9092594 28.0082271,14.0179749 27.7815554,14.1720794 C29.2152417,16.4678801 29.7778447,17.983375 29.977338,18.7541685 C31.0568833,17.2753651 30.5942985,14.2998198 28.6439414,13.9636173 Z M24.4429005,16.2683872 C24.7875287,15.3065262 25.1324289,14.2446469 25.3591009,13.4556438 C24.9419048,12.8204729 24.4790484,12.112463 23.9436242,11.359336 C23.6533535,12.4394248 23.1817999,13.8818087 22.6463756,15.3154954 C23.4084719,15.3519149 24.0346736,15.7237223 24.4429005,16.2683872 Z M11.9490361,19.9244913 C12.003394,19.8975845 12.1213502,19.7978378 12.1667389,19.7611464 C13.7909496,18.3369724 13.2557973,15.1252428 10.8238301,14.8711205 C10.4069059,14.8711205 9.94404917,15.0159839 9.62632816,15.1888415 C10.2525298,16.8130522 11.8310799,19.6613997 11.9490361,19.9244913 L11.9490361,19.9244913 Z M14.5258667,2.57674899 C14.780261,3.11190168 15.1428277,3.77425092 15.5236038,4.38251457 C15.8508375,3.83784959 16.0954476,3.38396204 16.3221196,2.95806906 C15.886714,2.3318674 15.5149066,1.73311644 15.2153951,1.12485279 C15.1338584,0.962051358 15.0161738,0.925631454 14.9248529,0.916390706 C14.7620515,0.925631454 14.5894654,0.962051358 14.3535526,1.20693295 C13.3283648,2.42237289 12.6931943,3.1847411 11.9582768,4.11018227 C12.0490543,4.64560611 12.2306095,5.19896836 12.4029236,5.70694189 C13.0655448,4.73638394 13.8814551,3.52991281 14.5258667,2.57674899 L14.5258667,2.57674899 Z M16.9755001,18.9993221 C17.3293694,19.5344743 17.6650284,19.9701519 17.8196765,20.0429914 C18.5089333,20.3058114 19.5702687,19.6064983 19.0446291,18.3733923 C18.699457,17.7379495 18.3184093,17.0302116 18.0194413,16.4678801 C17.6470904,17.3933213 17.3024622,18.2731022 16.9755001,18.9993221 L16.9755001,18.9993221 Z M18.7627841,9.04614036 C19.5797814,6.97755517 19.6974661,6.55084639 19.8700521,5.94285468 C19.7792747,5.82462654 19.6341393,5.63437441 19.5520592,5.52565897 C19.4436153,5.76157136 19.2799984,6.07902082 19.0076657,6.51469842 C18.2186626,5.50772056 17.5560411,4.64560611 17.0752467,4.01967639 C16.8485747,4.51868072 16.6039646,5.035895 16.3221196,5.57077575 C16.9939819,6.56905634 18.7448461,9.02820234 18.7627841,9.04614036 L18.7627841,9.04614036 Z M14.0537692,1.0707668 C14.3261019,0.862304723 14.6345822,0.45380589 14.798199,0.163535579 C14.0719792,0.263281823 13.8001904,0.308398994 13.1014212,0.508163809 C12.8475704,0.734835842 12.7565211,0.916390706 12.7478238,1.03461884 C12.6475337,1.56080232 13.164748,1.7967151 14.0537692,1.0707668 L14.0537692,1.0707668 Z" id="Shape"></path>
                        <path d="M21.4215863,1.82394818 C21.4759439,1.86960883 21.5485117,1.9057568 21.5756905,1.92369481 C24.7238214,3.99255193 26.8562772,5.98856964 27.9901805,7.05017696 C27.9632732,6.92325156 27.9450633,6.7052768 27.9271253,6.56911065 C27.3645223,5.96111894 26.6657531,5.23544257 26.0216135,4.60924091 C25.6226273,3.59329385 25.5862074,3.39352903 24.9692469,2.54989647 C25.6405653,2.93964187 26.5021363,3.5840531 27.0647393,4.02000263 C27.0468013,3.99255193 26.9016659,3.72021925 26.8837279,3.68407167 C26.5660065,3.13967823 26.2662235,2.78553732 25.8946881,2.39579192 L25.6854106,2.23217507 C24.7515437,1.69702278 23.7712011,1.25264791 22.7370445,0.907204266 C23.6350349,1.77828752 24.125342,2.74069209 24.2704773,3.23018412 C23.9804786,3.00351209 22.5285824,2.16857641 21.4395243,1.7513807 L21.4215863,1.82394818 Z" id="Path"></path>
                        <path d="M24.1433074,4.82716137 C23.1181195,3.93786816 22.065753,3.05754376 21.4213414,2.55011371 C21.6393161,3.62965944 21.5936559,4.6091866 21.4939092,5.59822645 L21.5482671,5.60773913 C21.8567474,4.89972885 21.9929136,4.15584253 22.0747222,3.69298617 C22.4737083,3.86557222 23.4083902,4.41866254 24.1068878,4.87282202 L24.1433074,4.82716137 Z" id="Path"></path>
                        <path d="M8.32011079,5.8431897 C9.1180827,5.20801922 9.72634634,4.71852719 10.052765,4.45516371 C10.1620239,4.89981051 10.3161285,5.49828953 10.5066526,5.99729425 C9.54451954,7.31275238 8.64652907,8.65593313 7.93879072,9.78113913 C8.06598806,10.4345196 8.24699944,11.1784059 8.4924249,12.0402488 C9.22734202,10.7065803 10.1525116,9.15493746 11.2233597,7.47636922 C11.9400673,9.4365109 14.0358312,13.7821437 15.6964614,16.8036208 C16.0410901,15.9238403 16.7124085,14.2175494 16.7398592,14.1180747 C15.623622,12.0312796 14.7617795,10.3703774 14.1991765,9.30904202 C14.1268806,9.49956608 14.0358312,9.64497298 13.9453257,9.81755903 C13.6822338,10.2711746 13.5006789,10.2983534 13.2740069,10.2619339 C12.8562673,10.207576 12.7114039,9.73547887 12.6752559,9.63573223 C12.6660152,9.61752228 10.9874469,5.70702355 10.6610287,3.20303232 C10.370486,3.49357456 10.052765,3.84771548 9.82609298,4.09232553 C9.27218725,4.68183574 8.74654764,5.2805867 8.29238815,5.81601094 L8.32011079,5.8431897 Z" id="Path"></path>
                        <path d="M6.73223832,5.51644518 C5.95166056,6.28751025 5.05339815,7.24040213 4.74491789,7.59454305 C4.83596725,6.75091049 4.9721334,6.19700437 5.17135473,5.65261132 C4.6269613,6.17906635 4.14616692,6.7139471 3.71103281,7.18604421 C3.39303986,8.30173791 3.38434259,9.15461161 3.35689189,9.8990414 C3.35689189,10.1711018 3.49305804,10.3523851 3.72897082,10.3616258 C4.5274866,9.15461161 5.4167802,7.94841241 6.48708479,6.64137923 C6.57813416,6.19700437 6.6778804,5.72490726 6.73223832,5.51644518" id="Path"></path>
                        <path d="M0.86184251,11.7859084 C0.371806994,13.2470458 0.081264747,14.7986886 0,16.4044174 C0.0907774316,16.9939276 0.235640846,17.6924252 0.363110117,18.1830038 C0.544121499,17.3477966 0.753127062,16.5405836 1.03415662,15.732827 C0.816181858,14.4083997 0.734917111,12.992923 0.86184251,11.7859084" id="Path"></path>
                        <path d="M2.14115306,25.3773378 C2.12321504,25.0509195 2.08679514,24.4701066 2.08679514,24.388298 C1.78728369,24.016219 1.48804417,23.6446836 0.96186108,22.9369452 C1.27006941,23.7985162 1.64242027,24.6426926 2.07755439,25.4409365 L2.14115306,25.3773378 Z" id="Path"></path>
                        <path d="M8.33815742,18.0194143 C8.49226159,19.1082008 9.29077737,19.9515614 10.0890216,20.2421041 C9.46309187,19.0443302 8.86461245,17.7650197 8.41996604,16.7765237 C8.33815742,17.1393619 8.28379951,17.6473354 8.33815742,18.0194143" id="Path"></path>
                        <path d="M33.5432628,11.7498151 C33.0714372,10.3435792 32.4270256,9.02784914 31.6285098,7.81213726 C32.3365197,9.57251412 32.6629384,11.4326372 32.5993397,13.4737721 C32.5724325,14.3540961 32.4811116,15.2792657 32.3183101,16.2590648 C32.1821436,16.9852847 32.0095579,17.747109 31.8193054,18.5274148 C31.5472451,19.7610647 32.1185453,20.4054763 32.5724325,20.0429097 C32.5811298,20.0429097 32.8444932,19.5343927 33.098616,18.6548841 C33.2981088,17.9922625 33.5065709,17.1029693 33.6245275,16.0777815 C33.7789036,14.8348909 33.8063543,13.3647847 33.5432628,11.7498151" id="Path"></path>
                        <path d="M32.4813292,23.3453081 C32.1459413,23.980207 31.7464117,24.6523409 31.3017653,25.3413258 C30.6125084,26.4029335 29.8139927,27.4917196 28.8885515,28.5527835 C28.8977922,27.9456072 28.9157302,27.2104181 28.7436881,26.1941995 C28.5164726,24.8969509 27.9813203,23.1365741 26.7115224,20.677972 C26.6381395,20.5600154 26.4391897,20.1240658 25.9034939,20.1789672 C25.7491178,20.1969056 25.4862978,20.3154053 25.2683231,20.7682059 C24.370061,22.5465204 23.4902801,24.016355 22.5917462,25.6411092 C22.5012403,25.4321032 22.4194321,25.2505484 22.3289262,25.0689935 C21.8204092,23.962269 21.4578429,23.2183827 20.3598157,21.1671917 C20.033397,20.641824 19.6431081,20.6051325 19.298208,20.641824 C18.8353516,20.7682059 18.0822245,22.0029428 17.3206722,23.5173507 C16.9665312,24.188941 16.6219026,24.9143455 16.2954843,25.6136585 C15.6146532,27.1196407 15.0159023,28.5622961 14.7346008,29.2518245 C14.6345822,29.4882808 14.5802247,29.6421134 14.5620147,29.6510826 C12.2488195,26.883456 10.3248258,24.54281 8.48318416,21.7028878 C8.39267827,21.5765059 8.10213602,21.1859451 7.64824847,21.2128523 C6.92257211,21.3223832 6.45074655,23.0909138 6.26973517,26.4485938 C6.187655,26.3483037 6.11535907,26.2485574 6.0517604,26.1485388 C4.83604852,24.4702425 4.40037092,23.7812576 3.42084376,21.9474979 C3.11209157,21.3944072 2.85796883,21.3582596 2.64950675,21.3764692 C2.26818707,21.5129072 1.94122492,22.8283658 2.00509553,24.5705327 C2.02330548,24.8512903 2.04124349,25.1410175 2.07739146,25.4410724 C2.26818707,25.7952134 2.4584392,26.1306008 2.67641397,26.4752291 L2.68565472,26.4847417 C2.7487099,26.5749757 2.79409862,26.6573278 2.85796883,26.7475617 C2.85796883,26.7570744 2.86693804,26.7570744 2.87590724,26.7654998 C2.93026477,26.847308 2.99413537,26.9291166 3.0484929,27.019894 C3.0484929,27.0288632 3.05773404,27.0378321 3.05773404,27.0378321 C3.11209157,27.1196407 3.17514675,27.2104181 3.23901697,27.2824421 L3.24825771,27.3011955 C3.35670162,27.4645408 3.49286776,27.636583 3.61109589,27.7904156 C3.52928767,27.3737634 3.4841705,26.9291166 3.43878178,26.4485938 C3.39312152,25.8859908 3.38442425,25.2690299 3.43878178,24.6156494 C4.26420478,25.8582685 4.83604852,26.7114138 6.0881803,28.181248 C6.17841425,28.2720254 6.26022248,28.3712286 6.3420311,28.4807595 C6.51434522,29.4700712 6.75052954,30.358821 7.08591741,31.1576083 L7.09515816,31.1576083 C7.20360167,31.2388734 7.31286099,31.3206817 7.43081719,31.4024903 C7.44902714,31.4109156 7.46723709,31.4204283 7.48517511,31.4378228 C7.62134126,31.5286003 7.77571736,31.6199216 7.91188389,31.7196678 C8.16600624,31.8827412 8.43806699,32.046358 8.70115853,32.2007341 C8.44676425,31.6381311 8.23830217,31.0032322 8.06571612,30.286525 C8.79166442,30.9760534 10.1889312,32.3089061 11.9490361,33.6249081 C11.9669741,33.6338773 11.9946967,33.6338773 12.0126348,33.643118 C12.1126529,33.6789941 12.2031588,33.6977475 12.2939362,33.7246547 C12.339325,33.7428647 12.3849856,33.752377 12.4208616,33.7703154 C12.5295771,33.7974941 12.6478052,33.8336421 12.7654899,33.8605489 C12.8019098,33.8697901 12.8475704,33.8793024 12.883718,33.8972408 C12.9016564,33.8972408 12.9106252,33.9062096 12.9291067,33.9062096 C13.2193774,33.979049 13.5099197,34.0518884 13.8004623,34.1059744 C13.5006789,33.8697901 13.1829579,33.6159393 12.8475704,33.326212 C12.6657436,33.1715644 12.4847323,33.0171883 12.2846955,32.8446022 C12.076505,32.6635909 11.8764686,32.4820356 11.6769753,32.3089061 C9.87148169,30.6762704 8.48318416,29.1251711 7.86622324,28.4350988 C7.89367394,27.1832393 7.91188389,26.3578163 8.27445014,24.4702425 C9.1455334,25.5949051 9.93453688,26.6296052 11.3233779,28.2084272 C11.7310613,28.6617708 12.1849489,29.1792571 12.6931943,29.7328908 C13.2011675,30.286525 13.7817089,30.8937013 14.4174228,31.5742609 C14.5802247,31.746847 14.7799895,31.8555624 14.9887231,31.9009511 C15.0066615,31.9009511 15.0245995,31.9104638 15.0428091,31.9104638 C15.3694997,31.9368271 15.5964433,31.6832483 15.6692827,31.5286003 C15.7508194,31.3019282 15.832628,31.111948 15.9138927,30.9034859 C16.3767491,29.7690388 16.821124,28.8346288 17.5655537,27.4278494 C17.8555525,26.883456 18.1735455,26.2760077 18.5725316,25.5492444 C18.8353516,25.0605678 19.1351346,24.5061186 19.470794,23.9073676 C20.2059831,25.2872398 20.61421,26.0675456 21.103702,27.1106715 C21.2037202,27.3191336 21.2942257,27.5278676 21.3942442,27.7640523 C20.7408638,28.9158936 20.1603224,29.9228714 19.679528,30.7939551 C18.8992222,32.1645861 18.34586,33.2161377 17.9824779,34.0608576 C17.9281204,34.1779984 17.8737625,34.313893 17.8281018,34.4239673 C17.9376331,34.4239673 18.0553173,34.4239673 18.1735455,34.414455 L18.1914839,34.414455 C18.5089333,34.3962451 18.8266543,34.3693379 19.1351346,34.3421591 C20.0062183,32.817695 20.4416239,32.1550739 22.1384021,29.5880274 C22.4286728,30.5131971 22.6466476,31.3386197 22.7371531,32.0914752 C22.8007517,32.5999922 22.8189617,33.0802431 22.7550911,33.5251614 C23.1902252,33.380298 23.6351435,33.207712 24.0615804,33.0261571 C24.1346917,32.6997388 24.179537,32.3455979 24.197475,32.0012412 C24.2156849,31.4660889 24.179537,30.921424 24.1069691,30.4129069 C23.9254142,29.2610653 23.598996,28.217396 23.3995027,27.6281577 C24.2974932,26.1667488 24.9057568,25.2054316 25.8401672,23.4907154 C26.1847954,24.2797185 26.6563491,25.3136036 27.0015212,26.4847417 C27.3825693,27.7904156 27.6092409,29.2700345 27.3186987,30.7578071 C27.3282114,30.7488379 27.3186987,30.7670479 27.3186987,30.7578071 C27.3007607,30.9034859 27.2464028,31.0662874 27.1923168,31.256268 C27.2189521,31.2299042 27.237162,31.2209354 27.2643408,31.1937563 C27.3733282,31.1203734 27.4730748,31.0483494 27.573093,30.9760534 C27.6184821,30.9486027 27.6453889,30.9124548 27.6910496,30.885276 C27.7271975,30.8485845 27.763617,30.8301027 27.8092777,30.7939551 C28.7523853,30.0593095 29.6055306,29.2243738 30.3763241,28.3266553 C30.5220029,28.1445566 30.6668664,27.9635452 30.8212425,27.7819903 C30.9209891,27.636583 31.0114946,27.5096576 31.1115128,27.3737634 L31.1294512,27.3737634 C31.2474074,27.2014493 31.3748763,27.019894 31.4925609,26.8388827 L31.5018017,26.8388827 C31.5558876,26.7475617 31.6102456,26.6662966 31.6559062,26.5844884 C31.6741162,26.5665504 31.683085,26.5388277 31.6920542,26.5208897 C31.7377144,26.4570195 31.7825597,26.3849951 31.8282203,26.3211249 C31.8374611,26.3031869 31.855671,26.2760077 31.873881,26.2485574 C31.9187258,26.1846868 31.9554177,26.1221755 31.9825964,26.0577614 C32.0005344,26.0308542 32.0097752,26.0036754 32.0279851,25.9767682 C32.0823431,25.912898 32.1095218,25.8403301 32.1546386,25.7770034 C32.1728485,25.7495527 32.1820893,25.7313427 32.1910585,25.7044359 C32.2546572,25.6136585 32.3000459,25.5318499 32.3364654,25.4321032 C32.3451627,25.4231344 32.3633726,25.3869865 32.3726134,25.3774738 C32.4180021,25.3051778 32.454422,25.2415792 32.4813292,25.1692836 C32.4813292,25.1597709 32.49057,25.1410175 32.5090514,25.1325918 C33.3980731,23.417604 34.0057929,21.521333 34.2688848,19.5253149 C34.160169,19.816401 33.579628,21.3582596 32.4813292,23.3453081" id="Path"></path>
                        <path d="M6.22410186,16.9489738 C5.87947364,16.4132776 5.37122817,16.0596802 4.69039704,16.1047973 C4.67245902,16.1047973 4.66376176,16.1047973 4.64555181,16.1140381 C2.55821319,16.6491904 2.70362008,20.3971596 4.37321951,21.3307546 C5.5614803,22.0028884 6.75055689,20.8499598 6.79540213,19.0265282 C6.79540213,18.3644505 6.61439075,17.5382121 6.22410186,16.9489738" id="Path"></path>
                        <path d="M24.4790754,16.1592096 C24.0616077,15.633298 23.4538876,15.2612191 22.6915198,15.2250711 C22.5466564,15.2250711 22.3922803,15.2250711 22.2381761,15.2430091 C19.8246903,15.8238221 19.6431355,19.0719712 21.4304192,20.2697451 C23,21.3125989 25.0142277,20.0881898 25.0780983,18.0465114 C25.0960363,17.357255 24.8780615,16.6766954 24.4790754,16.1592096" id="Path"></path>
                        <path d="M9.99848875,2.01439058 C10.0982354,2.06005124 10.551851,2.14158792 12.1488826,0.952783259 C12.3119559,0.826129796 12.4570913,0.726111226 12.5753194,0.635333794 C11.7768036,0.853036624 11.0054666,1.13461006 10.2433703,1.46999754 C9.9528281,1.71515107 9.82617464,1.92388509 9.99848875,2.01439058" id="Path"></path>
                        <path d="M17.955598,1.14341594 C18.799231,1.56088359 19.5977468,1.2975205 19.397982,0.671862315 C19.379772,0.590053696 19.2892661,0.372350866 18.9987239,0.109259319 C18.9897551,0.100018571 18.9807859,0.100018571 18.9715451,0.0910493677 C18.4002448,0.0364199034 17.8014939,-1.04737755e-14 17.2027429,-1.04737755e-14 C17.0934836,-1.04737755e-14 16.9847682,0.00951268466 16.88475,0.00951268466 C17.0570641,0.418011518 17.447353,0.88929321 17.955598,1.14341594" id="Path"></path>
                        <path d="M30.0498238,18.6452624 C29.8413617,17.8828946 29.2969687,16.4312703 27.8540413,14.1360127 C27.336827,13.2923802 26.6926873,12.348729 25.912653,11.2781525 C25.4682782,10.6611916 24.9692738,9.99911389 24.4153681,9.30034475 C23.5807044,8.2474343 22.6278125,7.09559303 21.5485387,5.8431897 C21.6662233,4.66335424 21.7387908,3.94664669 21.5485387,2.77659547 C22.3196038,3.39355638 23.4358409,4.27333691 24.6877008,5.42572205 C25.2228531,5.89781916 25.7767588,6.4147619 26.3480591,6.97736489 C27.0014395,7.63971453 27.6817272,8.35696517 28.3622867,9.1277587 C28.3622867,9.1277587 28.3622867,9.11851795 28.3715275,9.1277587 C28.4984529,9.291104 28.6164091,9.39085025 28.7161557,9.46314618 C28.8792291,9.55419555 29.0246364,9.5724055 29.1608025,9.56289281 C29.4149249,9.52701639 29.5510914,9.35443073 29.5418506,9.03670933 C29.5233688,8.837488 29.5054307,8.63772318 29.4692828,8.41974842 C29.3692646,7.45815927 29.1425926,6.26065735 28.5259036,4.99928521 C28.2804781,4.49104013 27.9633006,3.99230735 27.5730117,3.475365 C27.563771,3.46585232 27.5548018,3.45715505 27.545561,3.45715505 C27.2552903,3.23918028 26.96502,3.0307182 26.6657801,2.84019413 C26.6657801,2.83095339 26.6475705,2.82171264 26.6383294,2.81328692 C26.4839533,2.71272525 26.3393618,2.61297862 26.175745,2.52247273 L26.1667758,2.52247273 C26.0034308,2.42272649 25.8487828,2.3322206 25.6854375,2.23193049 C26.0849675,2.64042932 26.4752564,3.13943365 26.8198846,3.7292158 C27.2552903,4.47310172 27.6273692,5.37136414 27.8358313,6.47863211 C27.863282,6.60528597 27.8907327,6.74145211 27.9176399,6.87761826 C26.7837367,5.80677019 24.7602683,3.91049873 21.6208346,1.85115429 C21.3305639,1.66035868 21.0400217,1.47907536 20.7410541,1.28855129 C20.55053,1.18880466 20.341796,1.06133578 20.1327904,1.07057653 C19.9153592,1.09802723 19.9153592,1.14341594 20.1327904,2.05037562 C20.1784507,2.27759114 20.2599874,2.8763421 20.1145805,4.21897938 C18.6724685,2.60400942 18.4544938,2.35015862 17.7288174,1.51522333 C17.5018738,1.27061328 17.3205905,1.25240333 17.1664863,1.27061328 C17.0569555,1.30730473 16.9485116,1.35187803 16.8667029,1.53397676 C16.6669381,2.01449959 16.4764141,2.43196724 16.2497424,2.88503937 C16.0317677,3.30277895 15.7779169,3.73791307 15.4604674,4.2918188 C14.9796726,5.10800065 14.3262922,6.15139842 13.3557338,7.67613404 C13.0836731,7.07711153 12.7474702,6.36040398 12.4661687,5.59803617 C12.2759166,5.09006264 12.1212689,4.56360761 12.030763,4.01948611 C11.8948684,3.27532825 11.8674177,2.50426317 12.0671829,1.76961761 C12.1489912,1.53397676 12.0035843,1.50598258 11.9310164,1.52473601 C11.187402,1.67884018 8.55566998,4.30078761 8.02948688,4.82724264 C8.43798533,3.60201846 8.61057138,3.093773 9.60830849,1.88757419 C9.69881438,1.77831487 9.72626508,1.74216691 9.74447464,1.69705013 C6.52323276,3.2481491 3.85589622,5.77986297 2.123242,8.90054318 C2.05937179,9.02801206 1.39702216,10.3434706 0.979826055,11.4322567 C2.85788756,8.02076266 6.65939891,4.40053424 7.42149517,3.79254253 C7.0676258,4.43695415 6.79529351,4.98134719 6.56889302,5.85243045 C6.51453549,6.07910248 6.46017757,6.32425601 6.41451692,6.60528597 C5.33497158,7.90280607 4.41822767,9.14596865 3.62922458,10.3434706 C2.46787023,12.122057 1.60602772,13.8275325 1.00700521,15.5601867 C0.734944461,16.3769124 0.499031678,17.1936381 0.317476424,18.0187892 C0.226970929,18.4006527 0.163372261,18.7906697 0.0908047815,19.1809586 C0.235668196,20.3874293 0.499031678,21.5490552 0.861869859,22.6737177 C0.861869859,22.1388374 0.907258575,21.4941538 0.934437339,21.258513 C0.979826055,20.9141563 1.02521477,20.5779534 1.07957269,20.2330532 C1.20649809,19.4622601 1.35190498,18.6909231 1.560639,17.9106172 C2.25940815,15.1796824 3.57459472,12.3215503 6.26041276,8.50182897 C6.28759152,9.34518998 6.34194944,10.4070692 6.6778804,11.8948415 C6.84095377,12.5938826 7.04941585,13.355435 7.33995849,14.2360313 C7.62153153,15.0345471 7.96616015,15.9143276 8.40129388,16.8941267 C8.81903346,17.8828946 9.34521694,18.9722246 9.98038742,20.1879364 C10.1070413,20.4415153 10.2527201,20.7054227 10.3975835,20.9682423 C11.0237852,21.9474979 12.0035843,21.5033946 12.1489912,20.6681873 C12.1669292,20.6141013 12.1756265,20.5238674 12.1756265,20.4602687 C12.1756265,20.2787139 12.1756265,20.1969056 12.012825,19.870487 C11.9041096,19.6160927 11.6861348,19.2078658 11.2961175,18.4637075 C10.6696443,17.2479957 10.1527015,16.1409996 9.71675239,15.1429906 C9.2090508,13.9272791 8.83697148,12.8567026 8.54670116,11.9220202 C8.29257843,11.0691469 8.12026432,10.3342298 7.99361046,9.68112095 C7.72997544,8.18383563 7.74818539,7.19533966 7.76639495,6.55092805 C8.49234325,5.68908554 9.04570549,5.04494586 9.85291854,4.17386221 C10.0801341,3.92898061 10.3342568,3.67458594 10.6152863,3.38431563 C10.7696624,5.13545135 12.2212871,8.837488 12.5841253,9.68112095 C12.629514,9.77189838 12.8200381,10.2980819 13.2557157,10.3434706 C13.4823877,10.3796185 13.7093313,10.3703774 13.981392,9.90779298 C14.0814102,9.75368843 14.1719161,9.59034351 14.2537243,9.43623896 C15.0791473,8.01152152 15.7779169,6.78684083 16.3679706,5.67060365 C16.6582409,5.1262106 16.9123636,4.60926826 17.1390356,4.11026354 C17.3026525,3.73791307 17.447244,3.39355638 17.5834105,3.0307182 C18.1555262,3.81999323 18.4906417,4.2918188 19.5161015,5.62575881 C19.5976382,5.73447425 19.6884156,5.8431897 19.7702238,5.96141783 C19.5976382,6.57810681 19.5253422,6.85968024 18.7173138,8.93723463 C18.2914204,10.0349899 17.6652187,11.6227807 16.7036296,14.0272973 C16.3766678,14.8345103 16.0317677,15.723532 15.6327815,16.7215406 C15.2702149,17.6203465 14.879926,18.6175402 14.4534895,19.6889321 C14.4260388,19.7609561 14.4260388,19.8248263 14.4078289,19.8968503 C14.2173048,20.9682423 15.1340487,21.485185 15.7510096,21.2490003 C15.7779169,21.2405749 15.8140644,21.2218215 15.8507563,21.204427 C16.0774279,21.0859269 16.512562,20.2787139 17.0390171,19.0996938 C17.3567385,18.3645048 17.7108794,17.5018469 18.0734456,16.5766772 C19.3617254,13.3010774 20.7685044,9.24598683 21.1674906,7.77588067 C22.2473078,9.18211662 23.1363295,10.3888593 23.8984258,11.4686766 C24.4428188,12.2305009 24.9143724,12.9107885 25.3408093,13.5551998 C25.8765054,14.4083454 26.3480591,15.1704413 26.7655267,15.9143276 C27.4006976,17.0577435 27.9176399,18.1468016 28.4258854,19.34376 C28.5074217,19.5163461 28.5799896,19.6979009 28.652829,19.870487 C29.0702966,20.7684774 29.8231521,20.4415153 30.0680337,19.7609561 C30.1316324,19.6343023 30.1585396,19.4622601 30.1677804,19.3263655 C30.1677804,19.3263655 30.1677804,19.1081192 30.0498238,18.6452624" id="Path"></path>
                    </g>
                    <g id="Group" transform="translate(43.333333, 11.886792)" fill="#AAAAAA">
                        <path d="M0.132897053,10.2698904 L1.96122121,10.2698904 L1.96122121,4.33238963 C2.56567971,3.5575194 3.27885365,3.16994871 4.1292811,3.16994871 C4.79054376,3.16994871 5.26780493,3.35422137 5.54638862,3.71352634 C5.82986444,4.07717993 5.97146657,4.69577168 5.97146657,5.53206587 L5.97146657,10.2698904 L7.80930303,10.2698904 L7.80930303,4.33238963 C8.39011598,3.5575194 9.11769472,3.16994871 9.96323005,3.16994871 C10.6432458,3.16994871 11.1014819,3.35422137 11.3849578,3.71352634 C11.6684336,4.07717993 11.8100357,4.69577168 11.8100357,5.53206587 L11.8100357,10.2698904 L13.5956889,10.2698904 L13.5956889,5.51331244 C13.5956889,4.50687806 13.487245,3.77005857 13.2274148,3.3023097 C12.9722051,2.83945334 12.5990388,2.47117918 12.1171571,2.19232393 C11.6306552,1.93249366 11.1014819,1.7955121 10.5299101,1.7955121 C9.51450655,1.7955121 8.59803458,2.1969445 7.80930303,3.01910583 L7.43124463,3.39689229 C7.41221926,3.36373406 7.40759908,3.33057582 7.38395353,3.3023097 C7.13825613,2.83945334 6.75557755,2.47117918 6.27858794,2.19232393 C5.79208564,1.93249366 5.26780493,1.7955121 4.7008533,1.7955121 C3.6710453,1.7955121 2.77359831,2.1969445 1.96122121,3.01910583 L1.96122121,2.02680431 L0.132897053,2.02680431 L0.132897053,10.2698904 Z" id="Path"></path>
                        <path d="M25.4500065,1.98975966 L25.4500065,3.04321359 C26.2621116,2.23083649 27.1549385,1.83402466 28.1752338,1.83402466 C28.7421854,1.83402466 29.2716302,1.96149354 29.7483482,2.23083649 C30.2446348,2.49528694 30.5987757,2.86845322 30.8539854,3.3266894 C31.1138156,3.79443788 31.2412845,4.53125776 31.2412845,5.54204077 L31.2412845,10.2755162 L29.4414984,10.2755162 L29.4414984,5.55617364 C29.4414984,4.71091024 29.2996247,4.1012877 29.0256612,3.74687485 C28.7421854,3.3739805 28.2698163,3.19922013 27.6039335,3.19922013 C26.7630187,3.19922013 26.0495729,3.58651928 25.4500065,4.36111796 L25.4500065,10.2755162 L23.6263029,10.2755162 L23.6263029,1.98975966 L25.4500065,1.98975966 Z" id="Path"></path>
                        <path d="M41.9922482,3.44690157 C41.2032447,3.44690157 40.5561153,3.71162396 40.0554802,4.22149987 C39.5453327,4.74143195 39.2996353,5.39345347 39.2996353,6.19631789 C39.2996353,6.98042886 39.5499529,7.64169153 40.0696134,8.1423267 C40.5843814,8.63372111 41.2410235,8.88893081 42.0582928,8.88893081 C42.8660493,8.88893081 43.5226914,8.63372111 44.0374594,8.12384481 C44.5573919,7.61831753 44.8074375,6.97091657 44.8074375,6.17729291 C44.8074375,5.39345347 44.5337459,4.74143195 44.0045731,4.22149987 C43.4707797,3.71162396 42.8092455,3.44690157 41.9922482,3.44690157 M42.0819383,1.9732622 C43.3430389,1.9732622 44.3872517,2.37469421 45.2232747,3.19658399 C46.0497847,3.9994484 46.4707855,5.03442045 46.4707855,6.26236281 C46.4707855,7.45769042 46.0408155,8.44944806 45.1996288,9.23383097 C44.358714,10.0271827 43.2865067,10.4242665 42.0063811,10.4242665 C40.7591418,10.4242665 39.7247133,10.017942 38.8837985,9.2148056 C38.0665289,8.42118194 37.6368308,7.4150195 37.6368308,6.21534326 C37.6368308,5.00126221 38.0665289,3.9904792 38.907444,3.18245074 C39.7440102,2.37469421 40.7971922,1.9732622 42.0819383,1.9732622" id="Shape"></path>
                        <path d="M36.0643688,8.94597918 C35.2753657,8.94597918 34.8880666,8.46436938 34.8880666,7.52425147 L34.8880666,3.46644307 L37.5097424,3.46644307 L37.287691,1.98791159 L34.8880666,1.98791159 L34.8880666,0.282707673 L31.7986422,3.30581596 L31.7986422,3.46644307 L33.2393949,3.46644307 L33.2393949,7.14619307 C33.2393949,7.89279718 33.2725531,8.39343235 33.3481107,8.66739548 C33.4095351,8.93673843 33.494605,9.15389778 33.607941,9.32403757 C33.7025232,9.48004451 33.8346126,9.63115894 33.9952401,9.75862821 C34.4863626,10.2027311 35.1147386,10.4198905 35.8610708,10.4198905 C36.3288196,10.4198905 36.7729226,10.3492254 37.1884878,10.2119719 L36.9476829,8.79975686 C36.6451817,8.89895962 36.3524652,8.94597918 36.0643688,8.94597918" id="Path"></path>
                        <path d="M56.5653244,8.55381487 C56.0929554,8.95551921 55.5828075,9.15392474 55.0299891,9.15392474 C54.6663355,9.15392474 54.3638343,9.04520929 54.1230294,8.85169549 C53.8963574,8.64377728 53.787642,8.3790549 53.787642,8.05780028 C53.787642,7.74633028 53.9055982,7.4816079 54.1512956,7.26906873 C54.3921005,7.05652995 54.8128298,6.84371924 55.403155,6.64069275 L56.5653244,6.23464017 L56.5653244,8.55381487 Z M59.4278052,8.98378494 C59.1114431,9.15392474 58.8657457,9.23899503 58.7004984,9.23899503 C58.4830671,9.23899503 58.3838639,9.09739289 58.3838639,8.81853725 L58.3838639,5.34670586 C58.3838639,4.65690553 58.3555982,4.17529573 58.3083067,3.93394736 C58.2563951,3.68852189 58.166705,3.43820431 58.0060775,3.18299461 C57.8454504,2.94191778 57.6565571,2.73889129 57.4486385,2.58804841 C56.8534208,2.120028 56.0361516,1.88873578 55.0395018,1.88873578 C53.8917372,1.88873578 52.9752649,2.15807834 52.2900851,2.71035363 L52.1389703,1.88873578 C51.9973685,1.8414443 51.8318489,1.83193161 51.6807345,1.83193161 C50.891731,1.83193161 50.0888666,2.46982028 49.3047556,3.74994624 L49.210173,3.89154798 L49.210173,1.98793855 L47.5663939,1.98793855 L47.5663939,10.2734236 L49.210173,10.2734236 L49.210173,5.93703149 C49.210173,5.25674385 49.408579,4.65690553 49.8007706,4.14648613 C50.1834492,3.6412304 50.6414134,3.39553339 51.1659661,3.39553339 C51.520107,3.39553339 51.9074061,3.54664782 52.3137307,3.83501614 L52.417554,4.39218315 C53.2206903,3.74532567 54.0425801,3.41917894 54.8930076,3.41917894 C56.012506,3.41917894 56.5653244,3.92008604 56.5653244,4.91184368 L56.5653244,5.3037634 L54.2034788,6.02210139 C53.4286089,6.26290629 52.8284991,6.57492016 52.4129338,6.9951056 C51.9973685,7.4109428 51.7753167,7.86890705 51.7753167,8.39318776 C51.7753167,8.97454419 51.9973685,9.45126187 52.4270667,9.83421238 C52.8524162,10.2119992 53.3954507,10.3962719 54.0425801,10.3962719 C54.9261658,10.3962719 55.7572963,10.1364416 56.5370587,9.59313594 C56.6879012,10.1459543 57.1464093,10.42481 57.9351408,10.42481 C58.2139961,10.42481 58.4830671,10.3775185 58.7382768,10.2829359 C58.9649488,10.2119992 59.2435325,10.065505 59.6120782,9.87199118 L59.4278052,8.98378494 Z" id="Shape"></path>
                        <path d="M17.210617,3.77959822 C17.6025367,3.43007787 18.1126845,3.2553175 18.7410605,3.2553175 C19.3599238,3.2553175 19.8651795,3.43007787 20.2288331,3.77959822 C20.5973788,4.13890318 20.805297,4.63926641 20.8525885,5.30080062 L16.4357471,5.30080062 C16.5395704,4.63926641 16.808913,4.13890318 17.210617,3.77959822 M19.2558285,8.87183517 C18.4293186,8.87183517 17.753923,8.63103027 17.2388831,8.17306603 C16.7192229,7.70042504 16.4406392,7.07204906 16.3933477,6.27869734 L22.5626842,6.27869734 L22.5626842,6.06588662 C22.5626842,4.77651991 22.2224046,3.7513321 21.5279841,2.98135437 C20.8338351,2.21137626 19.9029579,1.83331786 18.7410605,1.83331786 C17.5364921,1.83331786 16.5395704,2.22088894 15.7886177,3.01451261 C15.0327724,3.80813627 14.6500939,4.82843158 14.6500939,6.0849116 C14.6500939,6.92582675 14.8343669,7.66264624 15.1934,8.30977566 C15.5475409,8.94766432 16.0296945,9.4531916 16.6200198,9.83559863 C17.2247502,10.2087649 18.0088612,10.4025503 18.9821373,10.4025503 C19.6762859,10.4025503 20.3000417,10.3221009 20.8338351,10.1804988 C21.1501972,10.1000495 21.4760724,9.97720077 21.7924345,9.81195308 L21.589408,8.33804177 C20.8525885,8.68756251 20.0779902,8.87183517 19.2558285,8.87183517" id="Shape"></path>
                    </g>
                </g>
            </g>
        </g>
    </g>
</svg>